M48
; DRILL file {KiCad 9.0.7} date 2026-02-06T13:44:12-0500
; FORMAT={-:-/ absolute / inch / decimal}
; #@! TF.CreationDate,2026-02-06T13:44:12-05:00
; #@! TF.GenerationSoftware,Kicad,Pcbnew,9.0.7
; #@! TF.FileFunction,Plated,1,2,PTH
FMAT,2
INCH
; #@! TA.AperFunction,Plated,PTH,ViaDrill
T1C0.0118
; #@! TA.AperFunction,Plated,PTH,ComponentDrill
T2C0.0295
; #@! TA.AperFunction,Plated,PTH,ComponentDrill
T3C0.0394
%
G90
G05
T1
X4.2913Y-3.9134
X4.4646Y-3.5669
X4.6382Y-3.4965
X4.7087Y-4.4094
X4.8819Y-2.9449
X4.9291Y-2.9843
X4.9764Y-3.1181
X5.0154Y-2.9059
X5.0157Y-2.3386
X5.0236Y-2.9921
X5.1181Y-2.9921
X5.8661Y-3.7402
X6.3307Y-2.4803
X6.3937Y-2.5433
X6.4094Y-4.1496
X6.4252Y-4.2047
X6.9567Y-4.0906
X7.0551Y-4.0
X7.0709Y-4.2047
X7.1811Y-3.8346
X7.2047Y-3.2362
X7.2402Y-3.1693
X7.2756Y-3.6772
X7.3189Y-4.0039
X7.3228Y-3.5827
X7.3307Y-3.0118
X7.5591Y-1.9213
X7.5748Y-3.4488
X7.8189Y-3.1732
X7.8898Y-3.9055
X8.0472Y-2.3543
X8.1339Y-2.3622
X8.2756Y-4.1732
T2
X4.3858Y-2.1185
X4.3858Y-2.5122
X4.3858Y-2.9059
X4.3858Y-3.2996
X4.3858Y-3.6933
X4.3858Y-4.087
X4.4646Y-2.1185
X4.4646Y-2.5122
X4.4646Y-2.9059
X4.4646Y-3.2996
X4.4646Y-3.6933
X4.4646Y-4.087
X4.5433Y-2.1185
X4.5433Y-2.5122
X4.5433Y-2.9059
X4.5433Y-3.2996
X4.5433Y-3.6933
X4.5433Y-4.087
X4.622Y-2.1185
X4.622Y-2.5122
X4.622Y-2.9059
X4.622Y-3.2996
X4.622Y-3.6933
X4.622Y-4.087
X4.7008Y-2.1185
X4.7008Y-2.5122
X4.7008Y-2.9059
X4.7008Y-3.2996
X4.7008Y-3.6933
X4.7008Y-4.087
X4.7795Y-2.1185
X4.7795Y-2.5122
X4.7795Y-2.9059
X4.7795Y-3.2996
X4.7795Y-3.6933
X4.7795Y-4.087
X7.5374Y-2.1654
X7.5374Y-2.5591
X7.5374Y-2.9528
X7.5374Y-3.3465
X7.5374Y-3.7402
X7.5374Y-4.1339
X7.6161Y-2.1654
X7.6161Y-2.5591
X7.6161Y-2.9528
X7.6161Y-3.3465
X7.6161Y-3.7402
X7.6161Y-4.1339
X7.6949Y-2.1654
X7.6949Y-2.5591
X7.6949Y-2.9528
X7.6949Y-3.3465
X7.6949Y-3.7402
X7.6949Y-4.1339
X7.7736Y-2.1654
X7.7736Y-2.5591
X7.7736Y-2.9528
X7.7736Y-3.3465
X7.7736Y-3.7402
X7.7736Y-4.1339
X7.8524Y-2.1654
X7.8524Y-2.5591
X7.8524Y-2.9528
X7.8524Y-3.3465
X7.8524Y-3.7402
X7.8524Y-4.1339
X7.9311Y-2.1654
X7.9311Y-2.5591
X7.9311Y-2.9528
X7.9311Y-3.3465
X7.9311Y-3.7402
X7.9311Y-4.1339
T3
X3.8921Y-2.5339
X3.8921Y-3.715
X3.9921Y-2.5339
X3.9921Y-3.715
X4.0921Y-2.5339
X4.0921Y-3.715
X5.2697Y-2.4965
X5.2697Y-2.5965
X5.2697Y-2.6965
X5.2697Y-2.7965
X5.2697Y-2.8965
X5.2697Y-2.9965
X5.2697Y-3.0965
X5.2697Y-3.1965
X5.2697Y-3.2965
X5.2697Y-3.3965
X5.2697Y-3.4965
X5.2697Y-3.5965
X5.2697Y-3.6965
X5.2697Y-3.7965
X5.2697Y-3.8965
X5.6634Y-2.4965
X5.6634Y-2.5965
X5.6634Y-2.6965
X5.6634Y-2.7965
X5.6634Y-2.8965
X5.6634Y-2.9965
X5.6634Y-3.0965
X5.6634Y-3.1965
X5.6634Y-3.2965
X5.6634Y-3.3965
X5.6634Y-3.4965
X5.6634Y-3.5965
X5.6634Y-3.6965
X5.6634Y-3.7965
X5.6634Y-3.8965
X6.6535Y-2.4976
X6.6535Y-2.5976
X6.6535Y-2.6976
X6.6535Y-2.7976
X6.6535Y-2.8976
X6.6535Y-2.9976
X6.6535Y-3.0976
X6.6535Y-3.1976
X6.6535Y-3.2976
X6.6535Y-3.3976
X6.6535Y-3.4976
X6.6535Y-3.5976
X6.6535Y-3.6976
X6.6535Y-3.7976
X6.6535Y-3.8976
X7.0472Y-2.4976
X7.0472Y-2.5976
X7.0472Y-2.6976
X7.0472Y-2.7976
X7.0472Y-2.8976
X7.0472Y-2.9976
X7.0472Y-3.0976
X7.0472Y-3.1976
X7.0472Y-3.2976
X7.0472Y-3.3976
X7.0472Y-3.4976
X7.0472Y-3.5976
X7.0472Y-3.6976
X7.0472Y-3.7976
X7.0472Y-3.8976
X8.2248Y-2.5374
X8.2248Y-3.7185
X8.3248Y-2.5374
X8.3248Y-3.7185
X8.4248Y-2.5374
X8.4248Y-3.7185
M30
