%TF.GenerationSoftware,KiCad,Pcbnew,9.0.7*%
%TF.CreationDate,2026-02-06T13:42:45-05:00*%
%TF.ProjectId,ESP_Breakout,4553505f-4272-4656-916b-6f75742e6b69,rev?*%
%TF.SameCoordinates,Original*%
%TF.FileFunction,Copper,L1,Top*%
%TF.FilePolarity,Positive*%
%FSLAX46Y46*%
G04 Gerber Fmt 4.6, Leading zero omitted, Abs format (unit mm)*
G04 Created by KiCad (PCBNEW 9.0.7) date 2026-02-06 13:42:45*
%MOMM*%
%LPD*%
G01*
G04 APERTURE LIST*
G04 Aperture macros list*
%AMRoundRect*
0 Rectangle with rounded corners*
0 $1 Rounding radius*
0 $2 $3 $4 $5 $6 $7 $8 $9 X,Y pos of 4 corners*
0 Add a 4 corners polygon primitive as box body*
4,1,4,$2,$3,$4,$5,$6,$7,$8,$9,$2,$3,0*
0 Add four circle primitives for the rounded corners*
1,1,$1+$1,$2,$3*
1,1,$1+$1,$4,$5*
1,1,$1+$1,$6,$7*
1,1,$1+$1,$8,$9*
0 Add four rect primitives between the rounded corners*
20,1,$1+$1,$2,$3,$4,$5,0*
20,1,$1+$1,$4,$5,$6,$7,0*
20,1,$1+$1,$6,$7,$8,$9,0*
20,1,$1+$1,$8,$9,$2,$3,0*%
G04 Aperture macros list end*
%TA.AperFunction,ComponentPad*%
%ADD10R,1.700000X1.700000*%
%TD*%
%TA.AperFunction,ComponentPad*%
%ADD11C,1.700000*%
%TD*%
%TA.AperFunction,ComponentPad*%
%ADD12RoundRect,0.250000X-0.350000X-0.625000X0.350000X-0.625000X0.350000X0.625000X-0.350000X0.625000X0*%
%TD*%
%TA.AperFunction,ComponentPad*%
%ADD13O,1.200000X1.750000*%
%TD*%
%TA.AperFunction,ComponentPad*%
%ADD14RoundRect,0.250000X0.350000X0.625000X-0.350000X0.625000X-0.350000X-0.625000X0.350000X-0.625000X0*%
%TD*%
%TA.AperFunction,ViaPad*%
%ADD15C,0.600000*%
%TD*%
%TA.AperFunction,Conductor*%
%ADD16C,0.200000*%
%TD*%
%TA.AperFunction,Conductor*%
%ADD17C,0.250000*%
%TD*%
G04 APERTURE END LIST*
D10*
%TO.P,J5,1,Pin_1*%
%TO.N,+3.3V*%
X213990000Y-94450000D03*
D11*
%TO.P,J5,2,Pin_2*%
%TO.N,Net-(J5-Pin_2)*%
X211450000Y-94450000D03*
%TO.P,J5,3,Pin_3*%
%TO.N,GND*%
X208910000Y-94450000D03*
%TD*%
D12*
%TO.P,J_Drive4,1,1*%
%TO.N,GND*%
X111400000Y-93810000D03*
D13*
%TO.P,J_Drive4,2,2*%
%TO.N,/Drive_Ena+*%
X113400000Y-93810000D03*
%TO.P,J_Drive4,3,3*%
%TO.N,Net-(J6-Pin_2)*%
X115400000Y-93810000D03*
%TO.P,J_Drive4,4,4*%
%TO.N,/Drive_Dir+*%
X117400000Y-93810000D03*
%TO.P,J_Drive4,5,5*%
%TO.N,GND*%
X119400000Y-93810000D03*
%TO.P,J_Drive4,6,6*%
%TO.N,/Drive_Pul+*%
X121400000Y-93810000D03*
%TD*%
D12*
%TO.P,J_Turn1,1,1*%
%TO.N,GND*%
X111400000Y-73810000D03*
D13*
%TO.P,J_Turn1,2,2*%
%TO.N,/Turn_Ena+*%
X113400000Y-73810000D03*
%TO.P,J_Turn1,3,3*%
%TO.N,GND*%
X115400000Y-73810000D03*
%TO.P,J_Turn1,4,4*%
%TO.N,/Turn1_Dir+*%
X117400000Y-73810000D03*
%TO.P,J_Turn1,5,5*%
%TO.N,GND*%
X119400000Y-73810000D03*
%TO.P,J_Turn1,6,6*%
%TO.N,/Turn1_Pul+*%
X121400000Y-73810000D03*
%TD*%
D10*
%TO.P,J8,1,Pin_1*%
%TO.N,Net-(J1-Pin_1)*%
X133850000Y-63410000D03*
D11*
%TO.P,J8,2,Pin_2*%
%TO.N,Net-(J1-Pin_2)*%
X133850000Y-65950000D03*
%TO.P,J8,3,Pin_3*%
%TO.N,Net-(J1-Pin_3)*%
X133850000Y-68490000D03*
%TO.P,J8,4,Pin_4*%
%TO.N,Net-(J1-Pin_4)*%
X133850000Y-71030000D03*
%TO.P,J8,5,Pin_5*%
%TO.N,Net-(J1-Pin_5)*%
X133850000Y-73570000D03*
%TO.P,J8,6,Pin_6*%
%TO.N,/Turn1_Dir+*%
X133850000Y-76110000D03*
%TO.P,J8,7,Pin_7*%
%TO.N,/Turn1_Pul+*%
X133850000Y-78650000D03*
%TO.P,J8,8,Pin_8*%
%TO.N,/Lift_Ena+*%
X133850000Y-81190000D03*
%TO.P,J8,9,Pin_9*%
%TO.N,/Lift_Dir+*%
X133850000Y-83730000D03*
%TO.P,J8,10,Pin_10*%
%TO.N,/Lift_Pul+*%
X133850000Y-86270000D03*
%TO.P,J8,11,Pin_11*%
%TO.N,/Drive_Ena+*%
X133850000Y-88810000D03*
%TO.P,J8,12,Pin_12*%
%TO.N,/Drive_Dir+*%
X133850000Y-91350000D03*
%TO.P,J8,13,Pin_13*%
%TO.N,/Drive_Pul+*%
X133850000Y-93890000D03*
%TO.P,J8,14,Pin_14*%
%TO.N,Net-(J1-Pin_14)*%
X133850000Y-96430000D03*
%TO.P,J8,15,Pin_15*%
%TO.N,Net-(J1-Pin_15)*%
X133850000Y-98970000D03*
%TD*%
D12*
%TO.P,J_Lift4,1,1*%
%TO.N,GND*%
X111400000Y-83810000D03*
D13*
%TO.P,J_Lift4,2,2*%
%TO.N,/Lift_Ena+*%
X113400000Y-83810000D03*
%TO.P,J_Lift4,3,3*%
%TO.N,GND*%
X115400000Y-83810000D03*
%TO.P,J_Lift4,4,4*%
%TO.N,/Lift_Dir+*%
X117400000Y-83810000D03*
%TO.P,J_Lift4,5,5*%
%TO.N,GND*%
X119400000Y-83810000D03*
%TO.P,J_Lift4,6,6*%
%TO.N,/Lift_Pul+*%
X121400000Y-83810000D03*
%TD*%
D14*
%TO.P,J_Turn2,1,1*%
%TO.N,GND*%
X201450000Y-75000000D03*
D13*
%TO.P,J_Turn2,2,2*%
%TO.N,/Turn_Ena+*%
X199450000Y-75000000D03*
%TO.P,J_Turn2,3,3*%
%TO.N,GND*%
X197450000Y-75000000D03*
%TO.P,J_Turn2,4,4*%
%TO.N,/Turn2_Dir+*%
X195450000Y-75000000D03*
%TO.P,J_Turn2,5,5*%
%TO.N,GND*%
X193450000Y-75000000D03*
%TO.P,J_Turn2,6,6*%
%TO.N,/Turn2_Pul+*%
X191450000Y-75000000D03*
%TD*%
D12*
%TO.P,J_Drive1,1,1*%
%TO.N,GND*%
X111400000Y-63810000D03*
D13*
%TO.P,J_Drive1,2,2*%
%TO.N,/Drive_Ena+*%
X113400000Y-63810000D03*
%TO.P,J_Drive1,3,3*%
%TO.N,Net-(J3-Pin_2)*%
X115400000Y-63810000D03*
%TO.P,J_Drive1,4,4*%
%TO.N,/Drive_Dir+*%
X117400000Y-63810000D03*
%TO.P,J_Drive1,5,5*%
%TO.N,GND*%
X119400000Y-63810000D03*
%TO.P,J_Drive1,6,6*%
%TO.N,/Drive_Pul+*%
X121400000Y-63810000D03*
%TD*%
D14*
%TO.P,J_Drive3,1,1*%
%TO.N,GND*%
X201450000Y-95000000D03*
D13*
%TO.P,J_Drive3,2,2*%
%TO.N,/Drive_Ena+*%
X199450000Y-95000000D03*
%TO.P,J_Drive3,3,3*%
%TO.N,Net-(J5-Pin_2)*%
X197450000Y-95000000D03*
%TO.P,J_Drive3,4,4*%
%TO.N,/Drive_Dir+*%
X195450000Y-95000000D03*
%TO.P,J_Drive3,5,5*%
%TO.N,GND*%
X193450000Y-95000000D03*
%TO.P,J_Drive3,6,6*%
%TO.N,/Drive_Pul+*%
X191450000Y-95000000D03*
%TD*%
D10*
%TO.P,J2,1,Pin_1*%
%TO.N,GND*%
X169000000Y-99000000D03*
D11*
%TO.P,J2,2,Pin_2*%
%TO.N,+3.3V*%
X169000000Y-96460000D03*
%TO.P,J2,3,Pin_3*%
%TO.N,/Turn2_Pul+*%
X169000000Y-93920000D03*
%TO.P,J2,4,Pin_4*%
%TO.N,/Turn2_Dir+*%
X169000000Y-91380000D03*
%TO.P,J2,5,Pin_5*%
%TO.N,/Turn3_Pul+*%
X169000000Y-88840000D03*
%TO.P,J2,6,Pin_6*%
%TO.N,/Turn3_Dir+*%
X169000000Y-86300000D03*
%TO.P,J2,7,Pin_7*%
%TO.N,/Turn_Ena+*%
X169000000Y-83760000D03*
%TO.P,J2,8,Pin_8*%
%TO.N,Net-(J2-Pin_8)*%
X169000000Y-81220000D03*
%TO.P,J2,9,Pin_9*%
%TO.N,Net-(J2-Pin_9)*%
X169000000Y-78680000D03*
%TO.P,J2,10,Pin_10*%
%TO.N,Net-(J2-Pin_10)*%
X169000000Y-76140000D03*
%TO.P,J2,11,Pin_11*%
%TO.N,/Turn4_Dir+*%
X169000000Y-73600000D03*
%TO.P,J2,12,Pin_12*%
%TO.N,Net-(J2-Pin_12)*%
X169000000Y-71060000D03*
%TO.P,J2,13,Pin_13*%
%TO.N,Net-(J2-Pin_13)*%
X169000000Y-68520000D03*
%TO.P,J2,14,Pin_14*%
%TO.N,/Turn4_Pul+*%
X169000000Y-65980000D03*
%TO.P,J2,15,Pin_15*%
%TO.N,Net-(J2-Pin_15)*%
X169000000Y-63440000D03*
%TD*%
D14*
%TO.P,J_Lift3,1,1*%
%TO.N,GND*%
X201450000Y-85000000D03*
D13*
%TO.P,J_Lift3,2,2*%
%TO.N,/Lift_Ena+*%
X199450000Y-85000000D03*
%TO.P,J_Lift3,3,3*%
%TO.N,GND*%
X197450000Y-85000000D03*
%TO.P,J_Lift3,4,4*%
%TO.N,/Lift_Dir+*%
X195450000Y-85000000D03*
%TO.P,J_Lift3,5,5*%
%TO.N,GND*%
X193450000Y-85000000D03*
%TO.P,J_Lift3,6,6*%
%TO.N,/Lift_Pul+*%
X191450000Y-85000000D03*
%TD*%
D10*
%TO.P,J3,1,Pin_1*%
%TO.N,+3.3V*%
X98860000Y-64360000D03*
D11*
%TO.P,J3,2,Pin_2*%
%TO.N,Net-(J3-Pin_2)*%
X101400000Y-64360000D03*
%TO.P,J3,3,Pin_3*%
%TO.N,GND*%
X103940000Y-64360000D03*
%TD*%
D10*
%TO.P,J1,1,Pin_1*%
%TO.N,Net-(J1-Pin_1)*%
X143850000Y-63410000D03*
D11*
%TO.P,J1,2,Pin_2*%
%TO.N,Net-(J1-Pin_2)*%
X143850000Y-65950000D03*
%TO.P,J1,3,Pin_3*%
%TO.N,Net-(J1-Pin_3)*%
X143850000Y-68490000D03*
%TO.P,J1,4,Pin_4*%
%TO.N,Net-(J1-Pin_4)*%
X143850000Y-71030000D03*
%TO.P,J1,5,Pin_5*%
%TO.N,Net-(J1-Pin_5)*%
X143850000Y-73570000D03*
%TO.P,J1,6,Pin_6*%
%TO.N,/Turn1_Dir+*%
X143850000Y-76110000D03*
%TO.P,J1,7,Pin_7*%
%TO.N,/Turn1_Pul+*%
X143850000Y-78650000D03*
%TO.P,J1,8,Pin_8*%
%TO.N,/Lift_Ena+*%
X143850000Y-81190000D03*
%TO.P,J1,9,Pin_9*%
%TO.N,/Lift_Dir+*%
X143850000Y-83730000D03*
%TO.P,J1,10,Pin_10*%
%TO.N,/Lift_Pul+*%
X143850000Y-86270000D03*
%TO.P,J1,11,Pin_11*%
%TO.N,/Drive_Ena+*%
X143850000Y-88810000D03*
%TO.P,J1,12,Pin_12*%
%TO.N,/Drive_Dir+*%
X143850000Y-91350000D03*
%TO.P,J1,13,Pin_13*%
%TO.N,/Drive_Pul+*%
X143850000Y-93890000D03*
%TO.P,J1,14,Pin_14*%
%TO.N,Net-(J1-Pin_14)*%
X143850000Y-96430000D03*
%TO.P,J1,15,Pin_15*%
%TO.N,Net-(J1-Pin_15)*%
X143850000Y-98970000D03*
%TD*%
D10*
%TO.P,J6,1,Pin_1*%
%TO.N,+3.3V*%
X98860000Y-94360000D03*
D11*
%TO.P,J6,2,Pin_2*%
%TO.N,Net-(J6-Pin_2)*%
X101400000Y-94360000D03*
%TO.P,J6,3,Pin_3*%
%TO.N,GND*%
X103940000Y-94360000D03*
%TD*%
D12*
%TO.P,J_Turn4,1,1*%
%TO.N,GND*%
X111400000Y-103810000D03*
D13*
%TO.P,J_Turn4,2,2*%
%TO.N,/Turn_Ena+*%
X113400000Y-103810000D03*
%TO.P,J_Turn4,3,3*%
%TO.N,GND*%
X115400000Y-103810000D03*
%TO.P,J_Turn4,4,4*%
%TO.N,/Turn4_Dir+*%
X117400000Y-103810000D03*
%TO.P,J_Turn4,5,5*%
%TO.N,GND*%
X119400000Y-103810000D03*
%TO.P,J_Turn4,6,6*%
%TO.N,/Turn4_Pul+*%
X121400000Y-103810000D03*
%TD*%
D14*
%TO.P,J_Turn3,1,1*%
%TO.N,GND*%
X201450000Y-105000000D03*
D13*
%TO.P,J_Turn3,2,2*%
%TO.N,/Turn_Ena+*%
X199450000Y-105000000D03*
%TO.P,J_Turn3,3,3*%
%TO.N,GND*%
X197450000Y-105000000D03*
%TO.P,J_Turn3,4,4*%
%TO.N,/Turn3_Dir+*%
X195450000Y-105000000D03*
%TO.P,J_Turn3,5,5*%
%TO.N,GND*%
X193450000Y-105000000D03*
%TO.P,J_Turn3,6,6*%
%TO.N,/Turn3_Pul+*%
X191450000Y-105000000D03*
%TD*%
D14*
%TO.P,J_Lift2,1,1*%
%TO.N,GND*%
X201450000Y-55000000D03*
D13*
%TO.P,J_Lift2,2,2*%
%TO.N,/Lift_Ena+*%
X199450000Y-55000000D03*
%TO.P,J_Lift2,3,3*%
%TO.N,GND*%
X197450000Y-55000000D03*
%TO.P,J_Lift2,4,4*%
%TO.N,/Lift_Dir+*%
X195450000Y-55000000D03*
%TO.P,J_Lift2,5,5*%
%TO.N,GND*%
X193450000Y-55000000D03*
%TO.P,J_Lift2,6,6*%
%TO.N,/Lift_Pul+*%
X191450000Y-55000000D03*
%TD*%
D12*
%TO.P,J_Lift1,1,1*%
%TO.N,GND*%
X111400000Y-53810000D03*
D13*
%TO.P,J_Lift1,2,2*%
%TO.N,/Lift_Ena+*%
X113400000Y-53810000D03*
%TO.P,J_Lift1,3,3*%
%TO.N,GND*%
X115400000Y-53810000D03*
%TO.P,J_Lift1,4,4*%
%TO.N,/Lift_Dir+*%
X117400000Y-53810000D03*
%TO.P,J_Lift1,5,5*%
%TO.N,GND*%
X119400000Y-53810000D03*
%TO.P,J_Lift1,6,6*%
%TO.N,/Lift_Pul+*%
X121400000Y-53810000D03*
%TD*%
D10*
%TO.P,J7,1,Pin_1*%
%TO.N,GND*%
X179000000Y-99000000D03*
D11*
%TO.P,J7,2,Pin_2*%
%TO.N,+3.3V*%
X179000000Y-96460000D03*
%TO.P,J7,3,Pin_3*%
%TO.N,/Turn2_Pul+*%
X179000000Y-93920000D03*
%TO.P,J7,4,Pin_4*%
%TO.N,/Turn2_Dir+*%
X179000000Y-91380000D03*
%TO.P,J7,5,Pin_5*%
%TO.N,/Turn3_Pul+*%
X179000000Y-88840000D03*
%TO.P,J7,6,Pin_6*%
%TO.N,/Turn3_Dir+*%
X179000000Y-86300000D03*
%TO.P,J7,7,Pin_7*%
%TO.N,/Turn_Ena+*%
X179000000Y-83760000D03*
%TO.P,J7,8,Pin_8*%
%TO.N,Net-(J2-Pin_8)*%
X179000000Y-81220000D03*
%TO.P,J7,9,Pin_9*%
%TO.N,Net-(J2-Pin_9)*%
X179000000Y-78680000D03*
%TO.P,J7,10,Pin_10*%
%TO.N,Net-(J2-Pin_10)*%
X179000000Y-76140000D03*
%TO.P,J7,11,Pin_11*%
%TO.N,/Turn4_Dir+*%
X179000000Y-73600000D03*
%TO.P,J7,12,Pin_12*%
%TO.N,Net-(J2-Pin_12)*%
X179000000Y-71060000D03*
%TO.P,J7,13,Pin_13*%
%TO.N,Net-(J2-Pin_13)*%
X179000000Y-68520000D03*
%TO.P,J7,14,Pin_14*%
%TO.N,/Turn4_Pul+*%
X179000000Y-65980000D03*
%TO.P,J7,15,Pin_15*%
%TO.N,Net-(J2-Pin_15)*%
X179000000Y-63440000D03*
%TD*%
D10*
%TO.P,J4,1,Pin_1*%
%TO.N,+3.3V*%
X213990000Y-64450000D03*
D11*
%TO.P,J4,2,Pin_2*%
%TO.N,Net-(J4-Pin_2)*%
X211450000Y-64450000D03*
%TO.P,J4,3,Pin_3*%
%TO.N,GND*%
X208910000Y-64450000D03*
%TD*%
D14*
%TO.P,J_Drive2,1,1*%
%TO.N,GND*%
X201450000Y-65000000D03*
D13*
%TO.P,J_Drive2,2,2*%
%TO.N,/Drive_Ena+*%
X199450000Y-65000000D03*
%TO.P,J_Drive2,3,3*%
%TO.N,Net-(J4-Pin_2)*%
X197450000Y-65000000D03*
%TO.P,J_Drive2,4,4*%
%TO.N,/Drive_Dir+*%
X195450000Y-65000000D03*
%TO.P,J_Drive2,5,5*%
%TO.N,GND*%
X193450000Y-65000000D03*
%TO.P,J_Drive2,6,6*%
%TO.N,/Drive_Pul+*%
X191450000Y-65000000D03*
%TD*%
D15*
%TO.N,/Turn1_Pul+*%
X127390000Y-73810000D03*
%TO.N,/Lift_Dir+*%
X126400000Y-79200000D03*
X204400000Y-59800000D03*
X160800000Y-63000000D03*
X125200000Y-75800000D03*
X198600000Y-80600000D03*
X192000000Y-48800000D03*
%TO.N,/Lift_Ena+*%
X192400000Y-87600000D03*
X206600000Y-60000000D03*
X186000000Y-91000000D03*
X179200000Y-101600000D03*
%TO.N,/Drive_Dir+*%
X163200000Y-106800000D03*
X149000000Y-95000000D03*
%TO.N,/Lift_Pul+*%
X162400000Y-64600000D03*
%TO.N,/Drive_Ena+*%
X117810000Y-88810000D03*
X210200000Y-106000000D03*
X113400000Y-90600000D03*
X200400000Y-99200000D03*
%TO.N,/Turn1_Dir+*%
X124000000Y-74800000D03*
X130000000Y-76000000D03*
X127600000Y-76000000D03*
%TO.N,/Drive_Pul+*%
X127400000Y-59400000D03*
X185900000Y-101700000D03*
X162800000Y-105400000D03*
X186200000Y-76500000D03*
%TO.N,/Turn_Ena+*%
X109000000Y-99400000D03*
%TO.N,/Turn2_Dir+*%
X183000000Y-82200000D03*
%TO.N,/Turn3_Pul+*%
X182400000Y-97400000D03*
%TO.N,/Turn2_Pul+*%
X183900000Y-80500000D03*
%TO.N,/Turn3_Dir+*%
X176700000Y-103900000D03*
X179600000Y-106800000D03*
%TO.N,GND*%
X184800000Y-93400000D03*
X119600000Y-112000000D03*
%TD*%
D16*
%TO.N,/Turn1_Pul+*%
X127390000Y-73810000D02*
X129010000Y-73810000D01*
X129010000Y-73810000D02*
X133850000Y-78650000D01*
D17*
%TO.N,/Lift_Dir+*%
X143850000Y-83730000D02*
X149070000Y-83730000D01*
X149070000Y-83730000D02*
X160000000Y-72800000D01*
D16*
X118800000Y-50000000D02*
X123400000Y-50000000D01*
X117400000Y-53810000D02*
X117400000Y-51400000D01*
X126400000Y-79200000D02*
X127200000Y-80000000D01*
X133780000Y-83800000D02*
X133850000Y-83730000D01*
X117400000Y-81400000D02*
X118400000Y-80400000D01*
D17*
X198800000Y-58350000D02*
X202950000Y-58350000D01*
X195450000Y-52250000D02*
X195450000Y-55000000D01*
D16*
X117400000Y-51400000D02*
X118800000Y-50000000D01*
X117400000Y-83810000D02*
X117400000Y-81400000D01*
D17*
X198600000Y-80600000D02*
X195450000Y-83750000D01*
X192000000Y-48800000D02*
X195450000Y-52250000D01*
D16*
X130600000Y-83800000D02*
X133780000Y-83800000D01*
D17*
X195450000Y-55000000D02*
X198800000Y-58350000D01*
D16*
X118400000Y-80400000D02*
X127200000Y-80400000D01*
D17*
X160000000Y-72800000D02*
X160000000Y-63800000D01*
X195450000Y-83750000D02*
X195450000Y-85000000D01*
X202950000Y-58350000D02*
X204400000Y-59800000D01*
X160000000Y-63800000D02*
X160800000Y-63000000D01*
D16*
X127200000Y-80400000D02*
X130600000Y-83800000D01*
X127200000Y-80000000D02*
X127200000Y-80400000D01*
X123400000Y-50000000D02*
X125200000Y-51800000D01*
X125200000Y-57600000D02*
X125200000Y-75800000D01*
X125200000Y-51800000D02*
X125200000Y-57600000D01*
D17*
%TO.N,/Lift_Ena+*%
X192400000Y-87600000D02*
X196850000Y-87600000D01*
D16*
X128200000Y-79000000D02*
X130390000Y-81190000D01*
X201200000Y-51000000D02*
X204400000Y-51000000D01*
X199450000Y-52750000D02*
X201200000Y-51000000D01*
D17*
X186000000Y-98600000D02*
X186000000Y-91000000D01*
X183000000Y-101600000D02*
X186000000Y-98600000D01*
D16*
X113400000Y-51800000D02*
X116600000Y-48600000D01*
D17*
X196850000Y-87600000D02*
X199450000Y-85000000D01*
D16*
X126400000Y-77200000D02*
X128200000Y-79000000D01*
X124800000Y-48600000D02*
X126400000Y-50200000D01*
D17*
X179200000Y-101600000D02*
X183000000Y-101600000D01*
D16*
X199450000Y-55000000D02*
X199450000Y-52750000D01*
X206600000Y-53000000D02*
X206600000Y-60000000D01*
X126400000Y-50200000D02*
X126400000Y-77200000D01*
X116400000Y-78800000D02*
X124800000Y-78800000D01*
X130390000Y-81190000D02*
X133850000Y-81190000D01*
X204400000Y-51000000D02*
X204600000Y-51000000D01*
X124800000Y-78800000D02*
X126400000Y-77200000D01*
X113400000Y-81800000D02*
X116400000Y-78800000D01*
X204600000Y-51000000D02*
X206600000Y-53000000D01*
X116600000Y-48600000D02*
X124800000Y-48600000D01*
X113400000Y-83810000D02*
X113400000Y-81800000D01*
X113400000Y-53810000D02*
X113400000Y-51800000D01*
%TO.N,/Drive_Dir+*%
X108200000Y-71600000D02*
X108200000Y-87000000D01*
X114200000Y-87600000D02*
X117400000Y-90800000D01*
D17*
X145350000Y-91350000D02*
X149000000Y-95000000D01*
X212300000Y-106750000D02*
X207250000Y-111800000D01*
X217150000Y-63150000D02*
X217150000Y-106200000D01*
X201600000Y-115400000D02*
X205200000Y-111800000D01*
X205200000Y-111800000D02*
X205200000Y-101800000D01*
D16*
X117400000Y-63810000D02*
X117400000Y-68000000D01*
D17*
X198200000Y-100000000D02*
X195450000Y-97250000D01*
X195400000Y-61700000D02*
X196300000Y-60800000D01*
X203400000Y-100000000D02*
X198200000Y-100000000D01*
X177500000Y-106800000D02*
X186100000Y-115400000D01*
D16*
X117400000Y-90800000D02*
X128000000Y-90800000D01*
D17*
X196300000Y-60800000D02*
X214800000Y-60800000D01*
D16*
X117400000Y-90800000D02*
X117400000Y-93810000D01*
D17*
X143850000Y-91350000D02*
X145350000Y-91350000D01*
D16*
X108200000Y-87000000D02*
X108800000Y-87600000D01*
D17*
X217150000Y-106200000D02*
X216600000Y-106750000D01*
X205200000Y-101800000D02*
X203400000Y-100000000D01*
D16*
X108800000Y-87600000D02*
X114200000Y-87600000D01*
X109000000Y-70800000D02*
X108200000Y-71600000D01*
D17*
X186100000Y-115400000D02*
X201600000Y-115400000D01*
X216600000Y-106750000D02*
X212300000Y-106750000D01*
X195450000Y-97250000D02*
X195450000Y-95000000D01*
D16*
X114600000Y-70800000D02*
X109000000Y-70800000D01*
D17*
X163200000Y-106800000D02*
X177500000Y-106800000D01*
X195450000Y-65000000D02*
X195450000Y-61750000D01*
X195450000Y-61750000D02*
X195400000Y-61700000D01*
X214800000Y-60800000D02*
X217150000Y-63150000D01*
D16*
X117400000Y-68000000D02*
X114600000Y-70800000D01*
X128000000Y-90800000D02*
X128550000Y-91350000D01*
D17*
X207250000Y-111800000D02*
X205200000Y-111800000D01*
D16*
X128550000Y-91350000D02*
X133850000Y-91350000D01*
D17*
%TO.N,/Lift_Pul+*%
X162400000Y-73600000D02*
X149730000Y-86270000D01*
X149730000Y-86270000D02*
X143850000Y-86270000D01*
X162400000Y-64600000D02*
X162400000Y-73600000D01*
D16*
%TO.N,/Drive_Ena+*%
X113400000Y-63810000D02*
X113400000Y-68000000D01*
D17*
X204000000Y-99200000D02*
X200400000Y-99200000D01*
D16*
X201600000Y-89600000D02*
X199400000Y-91800000D01*
D17*
X210200000Y-105400000D02*
X204200000Y-99400000D01*
D16*
X107000000Y-87800000D02*
X107600000Y-88400000D01*
X205800000Y-89000000D02*
X205200000Y-89600000D01*
D17*
X210200000Y-106000000D02*
X210200000Y-105400000D01*
D16*
X107600000Y-88400000D02*
X111200000Y-88400000D01*
X199400000Y-66200000D02*
X205800000Y-72600000D01*
D17*
X204200000Y-99400000D02*
X204000000Y-99200000D01*
D16*
X199400000Y-65010000D02*
X199400000Y-66200000D01*
X107000000Y-71400000D02*
X107000000Y-87800000D01*
X199400000Y-91800000D02*
X199400000Y-95010000D01*
X205800000Y-72600000D02*
X205800000Y-89000000D01*
X111200000Y-88400000D02*
X113400000Y-90600000D01*
X111600000Y-69800000D02*
X108600000Y-69800000D01*
X117810000Y-88810000D02*
X133850000Y-88810000D01*
X205200000Y-89600000D02*
X201600000Y-89600000D01*
X108600000Y-69800000D02*
X107000000Y-71400000D01*
X113400000Y-68000000D02*
X111600000Y-69800000D01*
X113400000Y-90600000D02*
X113400000Y-93810000D01*
%TO.N,/Turn1_Dir+*%
X117400000Y-73810000D02*
X117400000Y-76000000D01*
X117400000Y-76000000D02*
X119400000Y-78000000D01*
X124000000Y-76200000D02*
X124000000Y-74800000D01*
X127600000Y-76000000D02*
X130000000Y-76000000D01*
X119400000Y-78000000D02*
X122200000Y-78000000D01*
X122200000Y-78000000D02*
X124000000Y-76200000D01*
%TO.N,/Drive_Pul+*%
X137200000Y-90540000D02*
X137200000Y-85400000D01*
X191450000Y-65000000D02*
X188600000Y-65000000D01*
X163150000Y-105750000D02*
X181850000Y-105750000D01*
X186200000Y-67400000D02*
X186200000Y-76500000D01*
X188600000Y-65000000D02*
X186200000Y-67400000D01*
X137200000Y-85400000D02*
X137200000Y-61400000D01*
X133850000Y-93890000D02*
X137200000Y-90540000D01*
X162800000Y-105400000D02*
X163150000Y-105750000D01*
X135200000Y-59400000D02*
X127400000Y-59400000D01*
X137200000Y-61400000D02*
X135200000Y-59400000D01*
X181850000Y-105750000D02*
X185900000Y-101700000D01*
%TO.N,/Turn4_Pul+*%
X138400000Y-59800000D02*
X139400000Y-58800000D01*
X165380000Y-65980000D02*
X169000000Y-65980000D01*
X158200000Y-58800000D02*
X165380000Y-65980000D01*
X121400000Y-103810000D02*
X134590000Y-103810000D01*
X134590000Y-103810000D02*
X138400000Y-100000000D01*
X139400000Y-58800000D02*
X158200000Y-58800000D01*
X138400000Y-100000000D02*
X138400000Y-59800000D01*
%TO.N,/Turn_Ena+*%
X153000000Y-99600000D02*
X153000000Y-88200000D01*
X196400000Y-79400000D02*
X189600000Y-79400000D01*
X179160000Y-83600000D02*
X179000000Y-83760000D01*
X114200000Y-107600000D02*
X145000000Y-107600000D01*
X109000000Y-99400000D02*
X111400000Y-99400000D01*
X199450000Y-111150000D02*
X197000000Y-113600000D01*
X189600000Y-79400000D02*
X185400000Y-83600000D01*
X153000000Y-88200000D02*
X157200000Y-84000000D01*
X199450000Y-76350000D02*
X196400000Y-79400000D01*
X185400000Y-83600000D02*
X179160000Y-83600000D01*
X197000000Y-113600000D02*
X190200000Y-113600000D01*
X199450000Y-75000000D02*
X199450000Y-76350000D01*
X187400000Y-110800000D02*
X187400000Y-85600000D01*
X187400000Y-85600000D02*
X185400000Y-83600000D01*
X113400000Y-101400000D02*
X113400000Y-103810000D01*
X111400000Y-99400000D02*
X113400000Y-101400000D01*
X157400000Y-84000000D02*
X157640000Y-83760000D01*
X157640000Y-83760000D02*
X169000000Y-83760000D01*
X145000000Y-107600000D02*
X153000000Y-99600000D01*
X157200000Y-84000000D02*
X157400000Y-84000000D01*
X199450000Y-105000000D02*
X199450000Y-111150000D01*
X190200000Y-113600000D02*
X187400000Y-110800000D01*
X113400000Y-103810000D02*
X113400000Y-106800000D01*
X113400000Y-106800000D02*
X114200000Y-107600000D01*
D17*
%TO.N,/Turn2_Dir+*%
X184200000Y-82200000D02*
X183000000Y-82200000D01*
X189000000Y-77400000D02*
X184200000Y-82200000D01*
X195450000Y-75000000D02*
X193050000Y-77400000D01*
X193050000Y-77400000D02*
X189000000Y-77400000D01*
%TO.N,/Turn3_Pul+*%
X182400000Y-97400000D02*
X181200000Y-96200000D01*
X181200000Y-96200000D02*
X181200000Y-89600000D01*
X180440000Y-88840000D02*
X179000000Y-88840000D01*
X181200000Y-89600000D02*
X180440000Y-88840000D01*
D16*
%TO.N,/Turn2_Pul+*%
X183900000Y-80500000D02*
X189400000Y-75000000D01*
X189400000Y-75000000D02*
X191450000Y-75000000D01*
%TO.N,/Turn3_Dir+*%
X187250000Y-114450000D02*
X179600000Y-106800000D01*
X176700000Y-103900000D02*
X176300000Y-103500000D01*
X176300000Y-89000000D02*
X179000000Y-86300000D01*
X195450000Y-105000000D02*
X195450000Y-104000000D01*
X201150000Y-101300000D02*
X204250000Y-104400000D01*
X204250000Y-104400000D02*
X204250000Y-110100000D01*
X188000000Y-114450000D02*
X187250000Y-114450000D01*
X204250000Y-110100000D02*
X199900000Y-114450000D01*
X195450000Y-104000000D02*
X198150000Y-101300000D01*
X199900000Y-114450000D02*
X199650000Y-114450000D01*
X198150000Y-101300000D02*
X201150000Y-101300000D01*
X199650000Y-114450000D02*
X188000000Y-114450000D01*
X176300000Y-103500000D02*
X176300000Y-89000000D01*
%TO.N,/Turn4_Dir+*%
X151800000Y-98200000D02*
X151800000Y-86200000D01*
X119990000Y-106400000D02*
X143600000Y-106400000D01*
X143600000Y-106400000D02*
X151800000Y-98200000D01*
X117400000Y-103810000D02*
X119990000Y-106400000D01*
X164400000Y-73600000D02*
X169000000Y-73600000D01*
X151800000Y-86200000D02*
X164400000Y-73600000D01*
%TO.N,Net-(J3-Pin_2)*%
X101400000Y-62400000D02*
X101400000Y-64360000D01*
X114200000Y-61000000D02*
X102800000Y-61000000D01*
X115400000Y-63810000D02*
X115400000Y-62200000D01*
X115400000Y-62200000D02*
X114200000Y-61000000D01*
X102800000Y-61000000D02*
X101400000Y-62400000D01*
%TO.N,GND*%
X201450000Y-65000000D02*
X208360000Y-65000000D01*
X179000000Y-99000000D02*
X183000000Y-99000000D01*
X200500000Y-72800000D02*
X201500000Y-73800000D01*
X201500000Y-73800000D02*
X201500000Y-75010000D01*
X116400000Y-86400000D02*
X118000000Y-86400000D01*
X208360000Y-95000000D02*
X208910000Y-94450000D01*
X111400000Y-72800000D02*
X112600000Y-71600000D01*
X111400000Y-73810000D02*
X111400000Y-83810000D01*
X115400000Y-85400000D02*
X115400000Y-83810000D01*
D17*
X166600000Y-99000000D02*
X153600000Y-112000000D01*
D16*
X183000000Y-99000000D02*
X184800000Y-97200000D01*
X119400000Y-72600000D02*
X119400000Y-73810000D01*
D17*
X169000000Y-99000000D02*
X166600000Y-99000000D01*
D16*
X110850000Y-94360000D02*
X111400000Y-93810000D01*
X112600000Y-71600000D02*
X114400000Y-71600000D01*
X201450000Y-95000000D02*
X208360000Y-95000000D01*
X114400000Y-71600000D02*
X115400000Y-72600000D01*
X194700000Y-72800000D02*
X196500000Y-72800000D01*
X103940000Y-94360000D02*
X110850000Y-94360000D01*
X115400000Y-72800000D02*
X116600000Y-71600000D01*
X197500000Y-73800000D02*
X197500000Y-75010000D01*
X111400000Y-85000000D02*
X112800000Y-86400000D01*
X115400000Y-72600000D02*
X115400000Y-73810000D01*
X115400000Y-73810000D02*
X115400000Y-72800000D01*
X114400000Y-86400000D02*
X115400000Y-85400000D01*
X111400000Y-83810000D02*
X111400000Y-85000000D01*
X115400000Y-85400000D02*
X116400000Y-86400000D01*
X184800000Y-97200000D02*
X184800000Y-93400000D01*
X119400000Y-85000000D02*
X119400000Y-83810000D01*
X118400000Y-71600000D02*
X119400000Y-72600000D01*
X197500000Y-74000000D02*
X198700000Y-72800000D01*
X116600000Y-71600000D02*
X118400000Y-71600000D01*
X112800000Y-86400000D02*
X114400000Y-86400000D01*
X197500000Y-75010000D02*
X197500000Y-74000000D01*
X193500000Y-74000000D02*
X194700000Y-72800000D01*
X111400000Y-73810000D02*
X111400000Y-72800000D01*
X103940000Y-64360000D02*
X110850000Y-64360000D01*
X196500000Y-72800000D02*
X197500000Y-73800000D01*
X201450000Y-75000000D02*
X201450000Y-85000000D01*
D17*
X153600000Y-112000000D02*
X119600000Y-112000000D01*
D16*
X208360000Y-65000000D02*
X208910000Y-64450000D01*
X110850000Y-64360000D02*
X111400000Y-63810000D01*
X198700000Y-72800000D02*
X200500000Y-72800000D01*
X118000000Y-86400000D02*
X119400000Y-85000000D01*
X193500000Y-75010000D02*
X193500000Y-74000000D01*
%TO.N,+3.3V*%
X167200000Y-96600000D02*
X168860000Y-96600000D01*
X98860000Y-97260000D02*
X112200000Y-110600000D01*
X168860000Y-96600000D02*
X169000000Y-96460000D01*
X98860000Y-94360000D02*
X98860000Y-97260000D01*
X153200000Y-110600000D02*
X167200000Y-96600000D01*
X112200000Y-110600000D02*
X153200000Y-110600000D01*
%TO.N,Net-(J4-Pin_2)*%
X210250000Y-61640000D02*
X198850000Y-61640000D01*
X198850000Y-61640000D02*
X197450000Y-63040000D01*
X211450000Y-64450000D02*
X211450000Y-62840000D01*
X211450000Y-62840000D02*
X210250000Y-61640000D01*
X197450000Y-63040000D02*
X197450000Y-65000000D01*
%TO.N,Net-(J5-Pin_2)*%
X197400000Y-95000000D02*
X197400000Y-96610000D01*
X198600000Y-97810000D02*
X210000000Y-97810000D01*
X197400000Y-96610000D02*
X198600000Y-97810000D01*
X210000000Y-97810000D02*
X211400000Y-96410000D01*
X211400000Y-96410000D02*
X211400000Y-94450000D01*
%TO.N,Net-(J6-Pin_2)*%
X102600000Y-97170000D02*
X114000000Y-97170000D01*
X115400000Y-95770000D02*
X115400000Y-93810000D01*
X114000000Y-97170000D02*
X115400000Y-95770000D01*
X101400000Y-94360000D02*
X101400000Y-95970000D01*
X101400000Y-95970000D02*
X102600000Y-97170000D01*
%TD*%
M02*
