%TF.GenerationSoftware,KiCad,Pcbnew,9.0.7*%
%TF.CreationDate,2026-02-06T13:42:45-05:00*%
%TF.ProjectId,ESP_Breakout,4553505f-4272-4656-916b-6f75742e6b69,rev?*%
%TF.SameCoordinates,Original*%
%TF.FileFunction,Legend,Top*%
%TF.FilePolarity,Positive*%
%FSLAX46Y46*%
G04 Gerber Fmt 4.6, Leading zero omitted, Abs format (unit mm)*
G04 Created by KiCad (PCBNEW 9.0.7) date 2026-02-06 13:42:45*
%MOMM*%
%LPD*%
G01*
G04 APERTURE LIST*
%ADD10C,0.200000*%
%ADD11C,0.300000*%
%ADD12C,0.150000*%
%ADD13C,0.120000*%
G04 APERTURE END LIST*
D10*
X208103482Y-96564838D02*
X208008244Y-96517219D01*
X208008244Y-96517219D02*
X207865387Y-96517219D01*
X207865387Y-96517219D02*
X207722530Y-96564838D01*
X207722530Y-96564838D02*
X207627292Y-96660076D01*
X207627292Y-96660076D02*
X207579673Y-96755314D01*
X207579673Y-96755314D02*
X207532054Y-96945790D01*
X207532054Y-96945790D02*
X207532054Y-97088647D01*
X207532054Y-97088647D02*
X207579673Y-97279123D01*
X207579673Y-97279123D02*
X207627292Y-97374361D01*
X207627292Y-97374361D02*
X207722530Y-97469600D01*
X207722530Y-97469600D02*
X207865387Y-97517219D01*
X207865387Y-97517219D02*
X207960625Y-97517219D01*
X207960625Y-97517219D02*
X208103482Y-97469600D01*
X208103482Y-97469600D02*
X208151101Y-97421980D01*
X208151101Y-97421980D02*
X208151101Y-97088647D01*
X208151101Y-97088647D02*
X207960625Y-97088647D01*
X208579673Y-97517219D02*
X208579673Y-96517219D01*
X208579673Y-96517219D02*
X209151101Y-97517219D01*
X209151101Y-97517219D02*
X209151101Y-96517219D01*
X209627292Y-97517219D02*
X209627292Y-96517219D01*
X209627292Y-96517219D02*
X209865387Y-96517219D01*
X209865387Y-96517219D02*
X210008244Y-96564838D01*
X210008244Y-96564838D02*
X210103482Y-96660076D01*
X210103482Y-96660076D02*
X210151101Y-96755314D01*
X210151101Y-96755314D02*
X210198720Y-96945790D01*
X210198720Y-96945790D02*
X210198720Y-97088647D01*
X210198720Y-97088647D02*
X210151101Y-97279123D01*
X210151101Y-97279123D02*
X210103482Y-97374361D01*
X210103482Y-97374361D02*
X210008244Y-97469600D01*
X210008244Y-97469600D02*
X209865387Y-97517219D01*
X209865387Y-97517219D02*
X209627292Y-97517219D01*
X103463482Y-96504838D02*
X103368244Y-96457219D01*
X103368244Y-96457219D02*
X103225387Y-96457219D01*
X103225387Y-96457219D02*
X103082530Y-96504838D01*
X103082530Y-96504838D02*
X102987292Y-96600076D01*
X102987292Y-96600076D02*
X102939673Y-96695314D01*
X102939673Y-96695314D02*
X102892054Y-96885790D01*
X102892054Y-96885790D02*
X102892054Y-97028647D01*
X102892054Y-97028647D02*
X102939673Y-97219123D01*
X102939673Y-97219123D02*
X102987292Y-97314361D01*
X102987292Y-97314361D02*
X103082530Y-97409600D01*
X103082530Y-97409600D02*
X103225387Y-97457219D01*
X103225387Y-97457219D02*
X103320625Y-97457219D01*
X103320625Y-97457219D02*
X103463482Y-97409600D01*
X103463482Y-97409600D02*
X103511101Y-97361980D01*
X103511101Y-97361980D02*
X103511101Y-97028647D01*
X103511101Y-97028647D02*
X103320625Y-97028647D01*
X103939673Y-97457219D02*
X103939673Y-96457219D01*
X103939673Y-96457219D02*
X104511101Y-97457219D01*
X104511101Y-97457219D02*
X104511101Y-96457219D01*
X104987292Y-97457219D02*
X104987292Y-96457219D01*
X104987292Y-96457219D02*
X105225387Y-96457219D01*
X105225387Y-96457219D02*
X105368244Y-96504838D01*
X105368244Y-96504838D02*
X105463482Y-96600076D01*
X105463482Y-96600076D02*
X105511101Y-96695314D01*
X105511101Y-96695314D02*
X105558720Y-96885790D01*
X105558720Y-96885790D02*
X105558720Y-97028647D01*
X105558720Y-97028647D02*
X105511101Y-97219123D01*
X105511101Y-97219123D02*
X105463482Y-97314361D01*
X105463482Y-97314361D02*
X105368244Y-97409600D01*
X105368244Y-97409600D02*
X105225387Y-97457219D01*
X105225387Y-97457219D02*
X104987292Y-97457219D01*
D11*
X138329999Y-50769750D02*
X138329999Y-48769750D01*
X138329999Y-48769750D02*
X139472856Y-50769750D01*
X139472856Y-50769750D02*
X139472856Y-48769750D01*
X140425237Y-49722131D02*
X141091904Y-49722131D01*
X141377618Y-50769750D02*
X140425237Y-50769750D01*
X140425237Y-50769750D02*
X140425237Y-48769750D01*
X140425237Y-48769750D02*
X141377618Y-48769750D01*
X142615713Y-48769750D02*
X142996666Y-48769750D01*
X142996666Y-48769750D02*
X143187142Y-48864988D01*
X143187142Y-48864988D02*
X143377618Y-49055464D01*
X143377618Y-49055464D02*
X143472856Y-49436416D01*
X143472856Y-49436416D02*
X143472856Y-50103083D01*
X143472856Y-50103083D02*
X143377618Y-50484035D01*
X143377618Y-50484035D02*
X143187142Y-50674512D01*
X143187142Y-50674512D02*
X142996666Y-50769750D01*
X142996666Y-50769750D02*
X142615713Y-50769750D01*
X142615713Y-50769750D02*
X142425237Y-50674512D01*
X142425237Y-50674512D02*
X142234761Y-50484035D01*
X142234761Y-50484035D02*
X142139523Y-50103083D01*
X142139523Y-50103083D02*
X142139523Y-49436416D01*
X142139523Y-49436416D02*
X142234761Y-49055464D01*
X142234761Y-49055464D02*
X142425237Y-48864988D01*
X142425237Y-48864988D02*
X142615713Y-48769750D01*
X144329999Y-50769750D02*
X144329999Y-48769750D01*
X144329999Y-48769750D02*
X145472856Y-50769750D01*
X145472856Y-50769750D02*
X145472856Y-48769750D01*
X149091904Y-50579273D02*
X148996666Y-50674512D01*
X148996666Y-50674512D02*
X148710952Y-50769750D01*
X148710952Y-50769750D02*
X148520476Y-50769750D01*
X148520476Y-50769750D02*
X148234761Y-50674512D01*
X148234761Y-50674512D02*
X148044285Y-50484035D01*
X148044285Y-50484035D02*
X147949047Y-50293559D01*
X147949047Y-50293559D02*
X147853809Y-49912607D01*
X147853809Y-49912607D02*
X147853809Y-49626892D01*
X147853809Y-49626892D02*
X147949047Y-49245940D01*
X147949047Y-49245940D02*
X148044285Y-49055464D01*
X148044285Y-49055464D02*
X148234761Y-48864988D01*
X148234761Y-48864988D02*
X148520476Y-48769750D01*
X148520476Y-48769750D02*
X148710952Y-48769750D01*
X148710952Y-48769750D02*
X148996666Y-48864988D01*
X148996666Y-48864988D02*
X149091904Y-48960226D01*
X149853809Y-50198321D02*
X150806190Y-50198321D01*
X149663333Y-50769750D02*
X150329999Y-48769750D01*
X150329999Y-48769750D02*
X150996666Y-50769750D01*
X152806190Y-50769750D02*
X152139523Y-49817369D01*
X151663333Y-50769750D02*
X151663333Y-48769750D01*
X151663333Y-48769750D02*
X152425238Y-48769750D01*
X152425238Y-48769750D02*
X152615714Y-48864988D01*
X152615714Y-48864988D02*
X152710952Y-48960226D01*
X152710952Y-48960226D02*
X152806190Y-49150702D01*
X152806190Y-49150702D02*
X152806190Y-49436416D01*
X152806190Y-49436416D02*
X152710952Y-49626892D01*
X152710952Y-49626892D02*
X152615714Y-49722131D01*
X152615714Y-49722131D02*
X152425238Y-49817369D01*
X152425238Y-49817369D02*
X151663333Y-49817369D01*
X154806190Y-50769750D02*
X154139523Y-49817369D01*
X153663333Y-50769750D02*
X153663333Y-48769750D01*
X153663333Y-48769750D02*
X154425238Y-48769750D01*
X154425238Y-48769750D02*
X154615714Y-48864988D01*
X154615714Y-48864988D02*
X154710952Y-48960226D01*
X154710952Y-48960226D02*
X154806190Y-49150702D01*
X154806190Y-49150702D02*
X154806190Y-49436416D01*
X154806190Y-49436416D02*
X154710952Y-49626892D01*
X154710952Y-49626892D02*
X154615714Y-49722131D01*
X154615714Y-49722131D02*
X154425238Y-49817369D01*
X154425238Y-49817369D02*
X153663333Y-49817369D01*
X156044285Y-48769750D02*
X156425238Y-48769750D01*
X156425238Y-48769750D02*
X156615714Y-48864988D01*
X156615714Y-48864988D02*
X156806190Y-49055464D01*
X156806190Y-49055464D02*
X156901428Y-49436416D01*
X156901428Y-49436416D02*
X156901428Y-50103083D01*
X156901428Y-50103083D02*
X156806190Y-50484035D01*
X156806190Y-50484035D02*
X156615714Y-50674512D01*
X156615714Y-50674512D02*
X156425238Y-50769750D01*
X156425238Y-50769750D02*
X156044285Y-50769750D01*
X156044285Y-50769750D02*
X155853809Y-50674512D01*
X155853809Y-50674512D02*
X155663333Y-50484035D01*
X155663333Y-50484035D02*
X155568095Y-50103083D01*
X155568095Y-50103083D02*
X155568095Y-49436416D01*
X155568095Y-49436416D02*
X155663333Y-49055464D01*
X155663333Y-49055464D02*
X155853809Y-48864988D01*
X155853809Y-48864988D02*
X156044285Y-48769750D01*
X157472857Y-48769750D02*
X158615714Y-48769750D01*
X158044285Y-50769750D02*
X158044285Y-48769750D01*
X130663332Y-53989638D02*
X130663332Y-51989638D01*
X130663332Y-51989638D02*
X131329999Y-53418209D01*
X131329999Y-53418209D02*
X131996665Y-51989638D01*
X131996665Y-51989638D02*
X131996665Y-53989638D01*
X133329998Y-51989638D02*
X133710951Y-51989638D01*
X133710951Y-51989638D02*
X133901427Y-52084876D01*
X133901427Y-52084876D02*
X134091903Y-52275352D01*
X134091903Y-52275352D02*
X134187141Y-52656304D01*
X134187141Y-52656304D02*
X134187141Y-53322971D01*
X134187141Y-53322971D02*
X134091903Y-53703923D01*
X134091903Y-53703923D02*
X133901427Y-53894400D01*
X133901427Y-53894400D02*
X133710951Y-53989638D01*
X133710951Y-53989638D02*
X133329998Y-53989638D01*
X133329998Y-53989638D02*
X133139522Y-53894400D01*
X133139522Y-53894400D02*
X132949046Y-53703923D01*
X132949046Y-53703923D02*
X132853808Y-53322971D01*
X132853808Y-53322971D02*
X132853808Y-52656304D01*
X132853808Y-52656304D02*
X132949046Y-52275352D01*
X132949046Y-52275352D02*
X133139522Y-52084876D01*
X133139522Y-52084876D02*
X133329998Y-51989638D01*
X134758570Y-51989638D02*
X135901427Y-51989638D01*
X135329998Y-53989638D02*
X135329998Y-51989638D01*
X136949046Y-51989638D02*
X137329999Y-51989638D01*
X137329999Y-51989638D02*
X137520475Y-52084876D01*
X137520475Y-52084876D02*
X137710951Y-52275352D01*
X137710951Y-52275352D02*
X137806189Y-52656304D01*
X137806189Y-52656304D02*
X137806189Y-53322971D01*
X137806189Y-53322971D02*
X137710951Y-53703923D01*
X137710951Y-53703923D02*
X137520475Y-53894400D01*
X137520475Y-53894400D02*
X137329999Y-53989638D01*
X137329999Y-53989638D02*
X136949046Y-53989638D01*
X136949046Y-53989638D02*
X136758570Y-53894400D01*
X136758570Y-53894400D02*
X136568094Y-53703923D01*
X136568094Y-53703923D02*
X136472856Y-53322971D01*
X136472856Y-53322971D02*
X136472856Y-52656304D01*
X136472856Y-52656304D02*
X136568094Y-52275352D01*
X136568094Y-52275352D02*
X136758570Y-52084876D01*
X136758570Y-52084876D02*
X136949046Y-51989638D01*
X139806189Y-53989638D02*
X139139522Y-53037257D01*
X138663332Y-53989638D02*
X138663332Y-51989638D01*
X138663332Y-51989638D02*
X139425237Y-51989638D01*
X139425237Y-51989638D02*
X139615713Y-52084876D01*
X139615713Y-52084876D02*
X139710951Y-52180114D01*
X139710951Y-52180114D02*
X139806189Y-52370590D01*
X139806189Y-52370590D02*
X139806189Y-52656304D01*
X139806189Y-52656304D02*
X139710951Y-52846780D01*
X139710951Y-52846780D02*
X139615713Y-52942019D01*
X139615713Y-52942019D02*
X139425237Y-53037257D01*
X139425237Y-53037257D02*
X138663332Y-53037257D01*
X143329999Y-53799161D02*
X143234761Y-53894400D01*
X143234761Y-53894400D02*
X142949047Y-53989638D01*
X142949047Y-53989638D02*
X142758571Y-53989638D01*
X142758571Y-53989638D02*
X142472856Y-53894400D01*
X142472856Y-53894400D02*
X142282380Y-53703923D01*
X142282380Y-53703923D02*
X142187142Y-53513447D01*
X142187142Y-53513447D02*
X142091904Y-53132495D01*
X142091904Y-53132495D02*
X142091904Y-52846780D01*
X142091904Y-52846780D02*
X142187142Y-52465828D01*
X142187142Y-52465828D02*
X142282380Y-52275352D01*
X142282380Y-52275352D02*
X142472856Y-52084876D01*
X142472856Y-52084876D02*
X142758571Y-51989638D01*
X142758571Y-51989638D02*
X142949047Y-51989638D01*
X142949047Y-51989638D02*
X143234761Y-52084876D01*
X143234761Y-52084876D02*
X143329999Y-52180114D01*
X144568094Y-51989638D02*
X144949047Y-51989638D01*
X144949047Y-51989638D02*
X145139523Y-52084876D01*
X145139523Y-52084876D02*
X145329999Y-52275352D01*
X145329999Y-52275352D02*
X145425237Y-52656304D01*
X145425237Y-52656304D02*
X145425237Y-53322971D01*
X145425237Y-53322971D02*
X145329999Y-53703923D01*
X145329999Y-53703923D02*
X145139523Y-53894400D01*
X145139523Y-53894400D02*
X144949047Y-53989638D01*
X144949047Y-53989638D02*
X144568094Y-53989638D01*
X144568094Y-53989638D02*
X144377618Y-53894400D01*
X144377618Y-53894400D02*
X144187142Y-53703923D01*
X144187142Y-53703923D02*
X144091904Y-53322971D01*
X144091904Y-53322971D02*
X144091904Y-52656304D01*
X144091904Y-52656304D02*
X144187142Y-52275352D01*
X144187142Y-52275352D02*
X144377618Y-52084876D01*
X144377618Y-52084876D02*
X144568094Y-51989638D01*
X146282380Y-53989638D02*
X146282380Y-51989638D01*
X146282380Y-51989638D02*
X147425237Y-53989638D01*
X147425237Y-53989638D02*
X147425237Y-51989638D01*
X148091904Y-51989638D02*
X149234761Y-51989638D01*
X148663332Y-53989638D02*
X148663332Y-51989638D01*
X151044285Y-53989638D02*
X150377618Y-53037257D01*
X149901428Y-53989638D02*
X149901428Y-51989638D01*
X149901428Y-51989638D02*
X150663333Y-51989638D01*
X150663333Y-51989638D02*
X150853809Y-52084876D01*
X150853809Y-52084876D02*
X150949047Y-52180114D01*
X150949047Y-52180114D02*
X151044285Y-52370590D01*
X151044285Y-52370590D02*
X151044285Y-52656304D01*
X151044285Y-52656304D02*
X150949047Y-52846780D01*
X150949047Y-52846780D02*
X150853809Y-52942019D01*
X150853809Y-52942019D02*
X150663333Y-53037257D01*
X150663333Y-53037257D02*
X149901428Y-53037257D01*
X152282380Y-51989638D02*
X152663333Y-51989638D01*
X152663333Y-51989638D02*
X152853809Y-52084876D01*
X152853809Y-52084876D02*
X153044285Y-52275352D01*
X153044285Y-52275352D02*
X153139523Y-52656304D01*
X153139523Y-52656304D02*
X153139523Y-53322971D01*
X153139523Y-53322971D02*
X153044285Y-53703923D01*
X153044285Y-53703923D02*
X152853809Y-53894400D01*
X152853809Y-53894400D02*
X152663333Y-53989638D01*
X152663333Y-53989638D02*
X152282380Y-53989638D01*
X152282380Y-53989638D02*
X152091904Y-53894400D01*
X152091904Y-53894400D02*
X151901428Y-53703923D01*
X151901428Y-53703923D02*
X151806190Y-53322971D01*
X151806190Y-53322971D02*
X151806190Y-52656304D01*
X151806190Y-52656304D02*
X151901428Y-52275352D01*
X151901428Y-52275352D02*
X152091904Y-52084876D01*
X152091904Y-52084876D02*
X152282380Y-51989638D01*
X154949047Y-53989638D02*
X153996666Y-53989638D01*
X153996666Y-53989638D02*
X153996666Y-51989638D01*
X157806191Y-52942019D02*
X158091905Y-53037257D01*
X158091905Y-53037257D02*
X158187143Y-53132495D01*
X158187143Y-53132495D02*
X158282381Y-53322971D01*
X158282381Y-53322971D02*
X158282381Y-53608685D01*
X158282381Y-53608685D02*
X158187143Y-53799161D01*
X158187143Y-53799161D02*
X158091905Y-53894400D01*
X158091905Y-53894400D02*
X157901429Y-53989638D01*
X157901429Y-53989638D02*
X157139524Y-53989638D01*
X157139524Y-53989638D02*
X157139524Y-51989638D01*
X157139524Y-51989638D02*
X157806191Y-51989638D01*
X157806191Y-51989638D02*
X157996667Y-52084876D01*
X157996667Y-52084876D02*
X158091905Y-52180114D01*
X158091905Y-52180114D02*
X158187143Y-52370590D01*
X158187143Y-52370590D02*
X158187143Y-52561066D01*
X158187143Y-52561066D02*
X158091905Y-52751542D01*
X158091905Y-52751542D02*
X157996667Y-52846780D01*
X157996667Y-52846780D02*
X157806191Y-52942019D01*
X157806191Y-52942019D02*
X157139524Y-52942019D01*
X159520476Y-51989638D02*
X159901429Y-51989638D01*
X159901429Y-51989638D02*
X160091905Y-52084876D01*
X160091905Y-52084876D02*
X160282381Y-52275352D01*
X160282381Y-52275352D02*
X160377619Y-52656304D01*
X160377619Y-52656304D02*
X160377619Y-53322971D01*
X160377619Y-53322971D02*
X160282381Y-53703923D01*
X160282381Y-53703923D02*
X160091905Y-53894400D01*
X160091905Y-53894400D02*
X159901429Y-53989638D01*
X159901429Y-53989638D02*
X159520476Y-53989638D01*
X159520476Y-53989638D02*
X159330000Y-53894400D01*
X159330000Y-53894400D02*
X159139524Y-53703923D01*
X159139524Y-53703923D02*
X159044286Y-53322971D01*
X159044286Y-53322971D02*
X159044286Y-52656304D01*
X159044286Y-52656304D02*
X159139524Y-52275352D01*
X159139524Y-52275352D02*
X159330000Y-52084876D01*
X159330000Y-52084876D02*
X159520476Y-51989638D01*
X161139524Y-53418209D02*
X162091905Y-53418209D01*
X160949048Y-53989638D02*
X161615714Y-51989638D01*
X161615714Y-51989638D02*
X162282381Y-53989638D01*
X164091905Y-53989638D02*
X163425238Y-53037257D01*
X162949048Y-53989638D02*
X162949048Y-51989638D01*
X162949048Y-51989638D02*
X163710953Y-51989638D01*
X163710953Y-51989638D02*
X163901429Y-52084876D01*
X163901429Y-52084876D02*
X163996667Y-52180114D01*
X163996667Y-52180114D02*
X164091905Y-52370590D01*
X164091905Y-52370590D02*
X164091905Y-52656304D01*
X164091905Y-52656304D02*
X163996667Y-52846780D01*
X163996667Y-52846780D02*
X163901429Y-52942019D01*
X163901429Y-52942019D02*
X163710953Y-53037257D01*
X163710953Y-53037257D02*
X162949048Y-53037257D01*
X164949048Y-53989638D02*
X164949048Y-51989638D01*
X164949048Y-51989638D02*
X165425238Y-51989638D01*
X165425238Y-51989638D02*
X165710953Y-52084876D01*
X165710953Y-52084876D02*
X165901429Y-52275352D01*
X165901429Y-52275352D02*
X165996667Y-52465828D01*
X165996667Y-52465828D02*
X166091905Y-52846780D01*
X166091905Y-52846780D02*
X166091905Y-53132495D01*
X166091905Y-53132495D02*
X165996667Y-53513447D01*
X165996667Y-53513447D02*
X165901429Y-53703923D01*
X165901429Y-53703923D02*
X165710953Y-53894400D01*
X165710953Y-53894400D02*
X165425238Y-53989638D01*
X165425238Y-53989638D02*
X164949048Y-53989638D01*
D10*
X212994435Y-61237219D02*
X213613482Y-61237219D01*
X213613482Y-61237219D02*
X213280149Y-61618171D01*
X213280149Y-61618171D02*
X213423006Y-61618171D01*
X213423006Y-61618171D02*
X213518244Y-61665790D01*
X213518244Y-61665790D02*
X213565863Y-61713409D01*
X213565863Y-61713409D02*
X213613482Y-61808647D01*
X213613482Y-61808647D02*
X213613482Y-62046742D01*
X213613482Y-62046742D02*
X213565863Y-62141980D01*
X213565863Y-62141980D02*
X213518244Y-62189600D01*
X213518244Y-62189600D02*
X213423006Y-62237219D01*
X213423006Y-62237219D02*
X213137292Y-62237219D01*
X213137292Y-62237219D02*
X213042054Y-62189600D01*
X213042054Y-62189600D02*
X212994435Y-62141980D01*
X214042054Y-62141980D02*
X214089673Y-62189600D01*
X214089673Y-62189600D02*
X214042054Y-62237219D01*
X214042054Y-62237219D02*
X213994435Y-62189600D01*
X213994435Y-62189600D02*
X214042054Y-62141980D01*
X214042054Y-62141980D02*
X214042054Y-62237219D01*
X214423006Y-61237219D02*
X215042053Y-61237219D01*
X215042053Y-61237219D02*
X214708720Y-61618171D01*
X214708720Y-61618171D02*
X214851577Y-61618171D01*
X214851577Y-61618171D02*
X214946815Y-61665790D01*
X214946815Y-61665790D02*
X214994434Y-61713409D01*
X214994434Y-61713409D02*
X215042053Y-61808647D01*
X215042053Y-61808647D02*
X215042053Y-62046742D01*
X215042053Y-62046742D02*
X214994434Y-62141980D01*
X214994434Y-62141980D02*
X214946815Y-62189600D01*
X214946815Y-62189600D02*
X214851577Y-62237219D01*
X214851577Y-62237219D02*
X214565863Y-62237219D01*
X214565863Y-62237219D02*
X214470625Y-62189600D01*
X214470625Y-62189600D02*
X214423006Y-62141980D01*
X215327768Y-61237219D02*
X215661101Y-62237219D01*
X215661101Y-62237219D02*
X215994434Y-61237219D01*
X97824435Y-91087219D02*
X98443482Y-91087219D01*
X98443482Y-91087219D02*
X98110149Y-91468171D01*
X98110149Y-91468171D02*
X98253006Y-91468171D01*
X98253006Y-91468171D02*
X98348244Y-91515790D01*
X98348244Y-91515790D02*
X98395863Y-91563409D01*
X98395863Y-91563409D02*
X98443482Y-91658647D01*
X98443482Y-91658647D02*
X98443482Y-91896742D01*
X98443482Y-91896742D02*
X98395863Y-91991980D01*
X98395863Y-91991980D02*
X98348244Y-92039600D01*
X98348244Y-92039600D02*
X98253006Y-92087219D01*
X98253006Y-92087219D02*
X97967292Y-92087219D01*
X97967292Y-92087219D02*
X97872054Y-92039600D01*
X97872054Y-92039600D02*
X97824435Y-91991980D01*
X98872054Y-91991980D02*
X98919673Y-92039600D01*
X98919673Y-92039600D02*
X98872054Y-92087219D01*
X98872054Y-92087219D02*
X98824435Y-92039600D01*
X98824435Y-92039600D02*
X98872054Y-91991980D01*
X98872054Y-91991980D02*
X98872054Y-92087219D01*
X99253006Y-91087219D02*
X99872053Y-91087219D01*
X99872053Y-91087219D02*
X99538720Y-91468171D01*
X99538720Y-91468171D02*
X99681577Y-91468171D01*
X99681577Y-91468171D02*
X99776815Y-91515790D01*
X99776815Y-91515790D02*
X99824434Y-91563409D01*
X99824434Y-91563409D02*
X99872053Y-91658647D01*
X99872053Y-91658647D02*
X99872053Y-91896742D01*
X99872053Y-91896742D02*
X99824434Y-91991980D01*
X99824434Y-91991980D02*
X99776815Y-92039600D01*
X99776815Y-92039600D02*
X99681577Y-92087219D01*
X99681577Y-92087219D02*
X99395863Y-92087219D01*
X99395863Y-92087219D02*
X99300625Y-92039600D01*
X99300625Y-92039600D02*
X99253006Y-91991980D01*
X100157768Y-91087219D02*
X100491101Y-92087219D01*
X100491101Y-92087219D02*
X100824434Y-91087219D01*
X97724435Y-61247219D02*
X98343482Y-61247219D01*
X98343482Y-61247219D02*
X98010149Y-61628171D01*
X98010149Y-61628171D02*
X98153006Y-61628171D01*
X98153006Y-61628171D02*
X98248244Y-61675790D01*
X98248244Y-61675790D02*
X98295863Y-61723409D01*
X98295863Y-61723409D02*
X98343482Y-61818647D01*
X98343482Y-61818647D02*
X98343482Y-62056742D01*
X98343482Y-62056742D02*
X98295863Y-62151980D01*
X98295863Y-62151980D02*
X98248244Y-62199600D01*
X98248244Y-62199600D02*
X98153006Y-62247219D01*
X98153006Y-62247219D02*
X97867292Y-62247219D01*
X97867292Y-62247219D02*
X97772054Y-62199600D01*
X97772054Y-62199600D02*
X97724435Y-62151980D01*
X98772054Y-62151980D02*
X98819673Y-62199600D01*
X98819673Y-62199600D02*
X98772054Y-62247219D01*
X98772054Y-62247219D02*
X98724435Y-62199600D01*
X98724435Y-62199600D02*
X98772054Y-62151980D01*
X98772054Y-62151980D02*
X98772054Y-62247219D01*
X99153006Y-61247219D02*
X99772053Y-61247219D01*
X99772053Y-61247219D02*
X99438720Y-61628171D01*
X99438720Y-61628171D02*
X99581577Y-61628171D01*
X99581577Y-61628171D02*
X99676815Y-61675790D01*
X99676815Y-61675790D02*
X99724434Y-61723409D01*
X99724434Y-61723409D02*
X99772053Y-61818647D01*
X99772053Y-61818647D02*
X99772053Y-62056742D01*
X99772053Y-62056742D02*
X99724434Y-62151980D01*
X99724434Y-62151980D02*
X99676815Y-62199600D01*
X99676815Y-62199600D02*
X99581577Y-62247219D01*
X99581577Y-62247219D02*
X99295863Y-62247219D01*
X99295863Y-62247219D02*
X99200625Y-62199600D01*
X99200625Y-62199600D02*
X99153006Y-62151980D01*
X100057768Y-61247219D02*
X100391101Y-62247219D01*
X100391101Y-62247219D02*
X100724434Y-61247219D01*
X172663482Y-99244838D02*
X172568244Y-99197219D01*
X172568244Y-99197219D02*
X172425387Y-99197219D01*
X172425387Y-99197219D02*
X172282530Y-99244838D01*
X172282530Y-99244838D02*
X172187292Y-99340076D01*
X172187292Y-99340076D02*
X172139673Y-99435314D01*
X172139673Y-99435314D02*
X172092054Y-99625790D01*
X172092054Y-99625790D02*
X172092054Y-99768647D01*
X172092054Y-99768647D02*
X172139673Y-99959123D01*
X172139673Y-99959123D02*
X172187292Y-100054361D01*
X172187292Y-100054361D02*
X172282530Y-100149600D01*
X172282530Y-100149600D02*
X172425387Y-100197219D01*
X172425387Y-100197219D02*
X172520625Y-100197219D01*
X172520625Y-100197219D02*
X172663482Y-100149600D01*
X172663482Y-100149600D02*
X172711101Y-100101980D01*
X172711101Y-100101980D02*
X172711101Y-99768647D01*
X172711101Y-99768647D02*
X172520625Y-99768647D01*
X173139673Y-100197219D02*
X173139673Y-99197219D01*
X173139673Y-99197219D02*
X173711101Y-100197219D01*
X173711101Y-100197219D02*
X173711101Y-99197219D01*
X174187292Y-100197219D02*
X174187292Y-99197219D01*
X174187292Y-99197219D02*
X174425387Y-99197219D01*
X174425387Y-99197219D02*
X174568244Y-99244838D01*
X174568244Y-99244838D02*
X174663482Y-99340076D01*
X174663482Y-99340076D02*
X174711101Y-99435314D01*
X174711101Y-99435314D02*
X174758720Y-99625790D01*
X174758720Y-99625790D02*
X174758720Y-99768647D01*
X174758720Y-99768647D02*
X174711101Y-99959123D01*
X174711101Y-99959123D02*
X174663482Y-100054361D01*
X174663482Y-100054361D02*
X174568244Y-100149600D01*
X174568244Y-100149600D02*
X174425387Y-100197219D01*
X174425387Y-100197219D02*
X174187292Y-100197219D01*
X212994435Y-91327219D02*
X213613482Y-91327219D01*
X213613482Y-91327219D02*
X213280149Y-91708171D01*
X213280149Y-91708171D02*
X213423006Y-91708171D01*
X213423006Y-91708171D02*
X213518244Y-91755790D01*
X213518244Y-91755790D02*
X213565863Y-91803409D01*
X213565863Y-91803409D02*
X213613482Y-91898647D01*
X213613482Y-91898647D02*
X213613482Y-92136742D01*
X213613482Y-92136742D02*
X213565863Y-92231980D01*
X213565863Y-92231980D02*
X213518244Y-92279600D01*
X213518244Y-92279600D02*
X213423006Y-92327219D01*
X213423006Y-92327219D02*
X213137292Y-92327219D01*
X213137292Y-92327219D02*
X213042054Y-92279600D01*
X213042054Y-92279600D02*
X212994435Y-92231980D01*
X214042054Y-92231980D02*
X214089673Y-92279600D01*
X214089673Y-92279600D02*
X214042054Y-92327219D01*
X214042054Y-92327219D02*
X213994435Y-92279600D01*
X213994435Y-92279600D02*
X214042054Y-92231980D01*
X214042054Y-92231980D02*
X214042054Y-92327219D01*
X214423006Y-91327219D02*
X215042053Y-91327219D01*
X215042053Y-91327219D02*
X214708720Y-91708171D01*
X214708720Y-91708171D02*
X214851577Y-91708171D01*
X214851577Y-91708171D02*
X214946815Y-91755790D01*
X214946815Y-91755790D02*
X214994434Y-91803409D01*
X214994434Y-91803409D02*
X215042053Y-91898647D01*
X215042053Y-91898647D02*
X215042053Y-92136742D01*
X215042053Y-92136742D02*
X214994434Y-92231980D01*
X214994434Y-92231980D02*
X214946815Y-92279600D01*
X214946815Y-92279600D02*
X214851577Y-92327219D01*
X214851577Y-92327219D02*
X214565863Y-92327219D01*
X214565863Y-92327219D02*
X214470625Y-92279600D01*
X214470625Y-92279600D02*
X214423006Y-92231980D01*
X215327768Y-91327219D02*
X215661101Y-92327219D01*
X215661101Y-92327219D02*
X215994434Y-91327219D01*
X103483482Y-66574838D02*
X103388244Y-66527219D01*
X103388244Y-66527219D02*
X103245387Y-66527219D01*
X103245387Y-66527219D02*
X103102530Y-66574838D01*
X103102530Y-66574838D02*
X103007292Y-66670076D01*
X103007292Y-66670076D02*
X102959673Y-66765314D01*
X102959673Y-66765314D02*
X102912054Y-66955790D01*
X102912054Y-66955790D02*
X102912054Y-67098647D01*
X102912054Y-67098647D02*
X102959673Y-67289123D01*
X102959673Y-67289123D02*
X103007292Y-67384361D01*
X103007292Y-67384361D02*
X103102530Y-67479600D01*
X103102530Y-67479600D02*
X103245387Y-67527219D01*
X103245387Y-67527219D02*
X103340625Y-67527219D01*
X103340625Y-67527219D02*
X103483482Y-67479600D01*
X103483482Y-67479600D02*
X103531101Y-67431980D01*
X103531101Y-67431980D02*
X103531101Y-67098647D01*
X103531101Y-67098647D02*
X103340625Y-67098647D01*
X103959673Y-67527219D02*
X103959673Y-66527219D01*
X103959673Y-66527219D02*
X104531101Y-67527219D01*
X104531101Y-67527219D02*
X104531101Y-66527219D01*
X105007292Y-67527219D02*
X105007292Y-66527219D01*
X105007292Y-66527219D02*
X105245387Y-66527219D01*
X105245387Y-66527219D02*
X105388244Y-66574838D01*
X105388244Y-66574838D02*
X105483482Y-66670076D01*
X105483482Y-66670076D02*
X105531101Y-66765314D01*
X105531101Y-66765314D02*
X105578720Y-66955790D01*
X105578720Y-66955790D02*
X105578720Y-67098647D01*
X105578720Y-67098647D02*
X105531101Y-67289123D01*
X105531101Y-67289123D02*
X105483482Y-67384361D01*
X105483482Y-67384361D02*
X105388244Y-67479600D01*
X105388244Y-67479600D02*
X105245387Y-67527219D01*
X105245387Y-67527219D02*
X105007292Y-67527219D01*
X208233482Y-66594838D02*
X208138244Y-66547219D01*
X208138244Y-66547219D02*
X207995387Y-66547219D01*
X207995387Y-66547219D02*
X207852530Y-66594838D01*
X207852530Y-66594838D02*
X207757292Y-66690076D01*
X207757292Y-66690076D02*
X207709673Y-66785314D01*
X207709673Y-66785314D02*
X207662054Y-66975790D01*
X207662054Y-66975790D02*
X207662054Y-67118647D01*
X207662054Y-67118647D02*
X207709673Y-67309123D01*
X207709673Y-67309123D02*
X207757292Y-67404361D01*
X207757292Y-67404361D02*
X207852530Y-67499600D01*
X207852530Y-67499600D02*
X207995387Y-67547219D01*
X207995387Y-67547219D02*
X208090625Y-67547219D01*
X208090625Y-67547219D02*
X208233482Y-67499600D01*
X208233482Y-67499600D02*
X208281101Y-67451980D01*
X208281101Y-67451980D02*
X208281101Y-67118647D01*
X208281101Y-67118647D02*
X208090625Y-67118647D01*
X208709673Y-67547219D02*
X208709673Y-66547219D01*
X208709673Y-66547219D02*
X209281101Y-67547219D01*
X209281101Y-67547219D02*
X209281101Y-66547219D01*
X209757292Y-67547219D02*
X209757292Y-66547219D01*
X209757292Y-66547219D02*
X209995387Y-66547219D01*
X209995387Y-66547219D02*
X210138244Y-66594838D01*
X210138244Y-66594838D02*
X210233482Y-66690076D01*
X210233482Y-66690076D02*
X210281101Y-66785314D01*
X210281101Y-66785314D02*
X210328720Y-66975790D01*
X210328720Y-66975790D02*
X210328720Y-67118647D01*
X210328720Y-67118647D02*
X210281101Y-67309123D01*
X210281101Y-67309123D02*
X210233482Y-67404361D01*
X210233482Y-67404361D02*
X210138244Y-67499600D01*
X210138244Y-67499600D02*
X209995387Y-67547219D01*
X209995387Y-67547219D02*
X209757292Y-67547219D01*
D12*
X215824819Y-94783333D02*
X216539104Y-94783333D01*
X216539104Y-94783333D02*
X216681961Y-94830952D01*
X216681961Y-94830952D02*
X216777200Y-94926190D01*
X216777200Y-94926190D02*
X216824819Y-95069047D01*
X216824819Y-95069047D02*
X216824819Y-95164285D01*
X215824819Y-93830952D02*
X215824819Y-94307142D01*
X215824819Y-94307142D02*
X216301009Y-94354761D01*
X216301009Y-94354761D02*
X216253390Y-94307142D01*
X216253390Y-94307142D02*
X216205771Y-94211904D01*
X216205771Y-94211904D02*
X216205771Y-93973809D01*
X216205771Y-93973809D02*
X216253390Y-93878571D01*
X216253390Y-93878571D02*
X216301009Y-93830952D01*
X216301009Y-93830952D02*
X216396247Y-93783333D01*
X216396247Y-93783333D02*
X216634342Y-93783333D01*
X216634342Y-93783333D02*
X216729580Y-93830952D01*
X216729580Y-93830952D02*
X216777200Y-93878571D01*
X216777200Y-93878571D02*
X216824819Y-93973809D01*
X216824819Y-93973809D02*
X216824819Y-94211904D01*
X216824819Y-94211904D02*
X216777200Y-94307142D01*
X216777200Y-94307142D02*
X216729580Y-94354761D01*
X215963095Y-45754819D02*
X215963095Y-44754819D01*
X215963095Y-45231009D02*
X216534523Y-45231009D01*
X216534523Y-45754819D02*
X216534523Y-44754819D01*
X216915476Y-44754819D02*
X217534523Y-44754819D01*
X217534523Y-44754819D02*
X217201190Y-45135771D01*
X217201190Y-45135771D02*
X217344047Y-45135771D01*
X217344047Y-45135771D02*
X217439285Y-45183390D01*
X217439285Y-45183390D02*
X217486904Y-45231009D01*
X217486904Y-45231009D02*
X217534523Y-45326247D01*
X217534523Y-45326247D02*
X217534523Y-45564342D01*
X217534523Y-45564342D02*
X217486904Y-45659580D01*
X217486904Y-45659580D02*
X217439285Y-45707200D01*
X217439285Y-45707200D02*
X217344047Y-45754819D01*
X217344047Y-45754819D02*
X217058333Y-45754819D01*
X217058333Y-45754819D02*
X216963095Y-45707200D01*
X216963095Y-45707200D02*
X216915476Y-45659580D01*
X113828571Y-90364819D02*
X113828571Y-91079104D01*
X113828571Y-91079104D02*
X113780952Y-91221961D01*
X113780952Y-91221961D02*
X113685714Y-91317200D01*
X113685714Y-91317200D02*
X113542857Y-91364819D01*
X113542857Y-91364819D02*
X113447619Y-91364819D01*
X114066667Y-91460057D02*
X114828571Y-91460057D01*
X115066667Y-91364819D02*
X115066667Y-90364819D01*
X115066667Y-90364819D02*
X115304762Y-90364819D01*
X115304762Y-90364819D02*
X115447619Y-90412438D01*
X115447619Y-90412438D02*
X115542857Y-90507676D01*
X115542857Y-90507676D02*
X115590476Y-90602914D01*
X115590476Y-90602914D02*
X115638095Y-90793390D01*
X115638095Y-90793390D02*
X115638095Y-90936247D01*
X115638095Y-90936247D02*
X115590476Y-91126723D01*
X115590476Y-91126723D02*
X115542857Y-91221961D01*
X115542857Y-91221961D02*
X115447619Y-91317200D01*
X115447619Y-91317200D02*
X115304762Y-91364819D01*
X115304762Y-91364819D02*
X115066667Y-91364819D01*
X116066667Y-91364819D02*
X116066667Y-90698152D01*
X116066667Y-90888628D02*
X116114286Y-90793390D01*
X116114286Y-90793390D02*
X116161905Y-90745771D01*
X116161905Y-90745771D02*
X116257143Y-90698152D01*
X116257143Y-90698152D02*
X116352381Y-90698152D01*
X116685715Y-91364819D02*
X116685715Y-90698152D01*
X116685715Y-90364819D02*
X116638096Y-90412438D01*
X116638096Y-90412438D02*
X116685715Y-90460057D01*
X116685715Y-90460057D02*
X116733334Y-90412438D01*
X116733334Y-90412438D02*
X116685715Y-90364819D01*
X116685715Y-90364819D02*
X116685715Y-90460057D01*
X117066667Y-90698152D02*
X117304762Y-91364819D01*
X117304762Y-91364819D02*
X117542857Y-90698152D01*
X118304762Y-91317200D02*
X118209524Y-91364819D01*
X118209524Y-91364819D02*
X118019048Y-91364819D01*
X118019048Y-91364819D02*
X117923810Y-91317200D01*
X117923810Y-91317200D02*
X117876191Y-91221961D01*
X117876191Y-91221961D02*
X117876191Y-90841009D01*
X117876191Y-90841009D02*
X117923810Y-90745771D01*
X117923810Y-90745771D02*
X118019048Y-90698152D01*
X118019048Y-90698152D02*
X118209524Y-90698152D01*
X118209524Y-90698152D02*
X118304762Y-90745771D01*
X118304762Y-90745771D02*
X118352381Y-90841009D01*
X118352381Y-90841009D02*
X118352381Y-90936247D01*
X118352381Y-90936247D02*
X117876191Y-91031485D01*
X119209524Y-90698152D02*
X119209524Y-91364819D01*
X118971429Y-90317200D02*
X118733334Y-91031485D01*
X118733334Y-91031485D02*
X119352381Y-91031485D01*
X114090475Y-70364819D02*
X114090475Y-71079104D01*
X114090475Y-71079104D02*
X114042856Y-71221961D01*
X114042856Y-71221961D02*
X113947618Y-71317200D01*
X113947618Y-71317200D02*
X113804761Y-71364819D01*
X113804761Y-71364819D02*
X113709523Y-71364819D01*
X114328571Y-71460057D02*
X115090475Y-71460057D01*
X115185714Y-70364819D02*
X115757142Y-70364819D01*
X115471428Y-71364819D02*
X115471428Y-70364819D01*
X116519047Y-70698152D02*
X116519047Y-71364819D01*
X116090476Y-70698152D02*
X116090476Y-71221961D01*
X116090476Y-71221961D02*
X116138095Y-71317200D01*
X116138095Y-71317200D02*
X116233333Y-71364819D01*
X116233333Y-71364819D02*
X116376190Y-71364819D01*
X116376190Y-71364819D02*
X116471428Y-71317200D01*
X116471428Y-71317200D02*
X116519047Y-71269580D01*
X116995238Y-71364819D02*
X116995238Y-70698152D01*
X116995238Y-70888628D02*
X117042857Y-70793390D01*
X117042857Y-70793390D02*
X117090476Y-70745771D01*
X117090476Y-70745771D02*
X117185714Y-70698152D01*
X117185714Y-70698152D02*
X117280952Y-70698152D01*
X117614286Y-70698152D02*
X117614286Y-71364819D01*
X117614286Y-70793390D02*
X117661905Y-70745771D01*
X117661905Y-70745771D02*
X117757143Y-70698152D01*
X117757143Y-70698152D02*
X117900000Y-70698152D01*
X117900000Y-70698152D02*
X117995238Y-70745771D01*
X117995238Y-70745771D02*
X118042857Y-70841009D01*
X118042857Y-70841009D02*
X118042857Y-71364819D01*
X119042857Y-71364819D02*
X118471429Y-71364819D01*
X118757143Y-71364819D02*
X118757143Y-70364819D01*
X118757143Y-70364819D02*
X118661905Y-70507676D01*
X118661905Y-70507676D02*
X118566667Y-70602914D01*
X118566667Y-70602914D02*
X118471429Y-70650533D01*
X133516666Y-60094819D02*
X133516666Y-60809104D01*
X133516666Y-60809104D02*
X133469047Y-60951961D01*
X133469047Y-60951961D02*
X133373809Y-61047200D01*
X133373809Y-61047200D02*
X133230952Y-61094819D01*
X133230952Y-61094819D02*
X133135714Y-61094819D01*
X134135714Y-60523390D02*
X134040476Y-60475771D01*
X134040476Y-60475771D02*
X133992857Y-60428152D01*
X133992857Y-60428152D02*
X133945238Y-60332914D01*
X133945238Y-60332914D02*
X133945238Y-60285295D01*
X133945238Y-60285295D02*
X133992857Y-60190057D01*
X133992857Y-60190057D02*
X134040476Y-60142438D01*
X134040476Y-60142438D02*
X134135714Y-60094819D01*
X134135714Y-60094819D02*
X134326190Y-60094819D01*
X134326190Y-60094819D02*
X134421428Y-60142438D01*
X134421428Y-60142438D02*
X134469047Y-60190057D01*
X134469047Y-60190057D02*
X134516666Y-60285295D01*
X134516666Y-60285295D02*
X134516666Y-60332914D01*
X134516666Y-60332914D02*
X134469047Y-60428152D01*
X134469047Y-60428152D02*
X134421428Y-60475771D01*
X134421428Y-60475771D02*
X134326190Y-60523390D01*
X134326190Y-60523390D02*
X134135714Y-60523390D01*
X134135714Y-60523390D02*
X134040476Y-60571009D01*
X134040476Y-60571009D02*
X133992857Y-60618628D01*
X133992857Y-60618628D02*
X133945238Y-60713866D01*
X133945238Y-60713866D02*
X133945238Y-60904342D01*
X133945238Y-60904342D02*
X133992857Y-60999580D01*
X133992857Y-60999580D02*
X134040476Y-61047200D01*
X134040476Y-61047200D02*
X134135714Y-61094819D01*
X134135714Y-61094819D02*
X134326190Y-61094819D01*
X134326190Y-61094819D02*
X134421428Y-61047200D01*
X134421428Y-61047200D02*
X134469047Y-60999580D01*
X134469047Y-60999580D02*
X134516666Y-60904342D01*
X134516666Y-60904342D02*
X134516666Y-60713866D01*
X134516666Y-60713866D02*
X134469047Y-60618628D01*
X134469047Y-60618628D02*
X134421428Y-60571009D01*
X134421428Y-60571009D02*
X134326190Y-60523390D01*
X95863095Y-45754819D02*
X95863095Y-44754819D01*
X95863095Y-45231009D02*
X96434523Y-45231009D01*
X96434523Y-45754819D02*
X96434523Y-44754819D01*
X97434523Y-45754819D02*
X96863095Y-45754819D01*
X97148809Y-45754819D02*
X97148809Y-44754819D01*
X97148809Y-44754819D02*
X97053571Y-44897676D01*
X97053571Y-44897676D02*
X96958333Y-44992914D01*
X96958333Y-44992914D02*
X96863095Y-45040533D01*
X114471428Y-80364819D02*
X114471428Y-81079104D01*
X114471428Y-81079104D02*
X114423809Y-81221961D01*
X114423809Y-81221961D02*
X114328571Y-81317200D01*
X114328571Y-81317200D02*
X114185714Y-81364819D01*
X114185714Y-81364819D02*
X114090476Y-81364819D01*
X114709524Y-81460057D02*
X115471428Y-81460057D01*
X116185714Y-81364819D02*
X115709524Y-81364819D01*
X115709524Y-81364819D02*
X115709524Y-80364819D01*
X116519048Y-81364819D02*
X116519048Y-80698152D01*
X116519048Y-80364819D02*
X116471429Y-80412438D01*
X116471429Y-80412438D02*
X116519048Y-80460057D01*
X116519048Y-80460057D02*
X116566667Y-80412438D01*
X116566667Y-80412438D02*
X116519048Y-80364819D01*
X116519048Y-80364819D02*
X116519048Y-80460057D01*
X116852381Y-80698152D02*
X117233333Y-80698152D01*
X116995238Y-81364819D02*
X116995238Y-80507676D01*
X116995238Y-80507676D02*
X117042857Y-80412438D01*
X117042857Y-80412438D02*
X117138095Y-80364819D01*
X117138095Y-80364819D02*
X117233333Y-80364819D01*
X117423810Y-80698152D02*
X117804762Y-80698152D01*
X117566667Y-80364819D02*
X117566667Y-81221961D01*
X117566667Y-81221961D02*
X117614286Y-81317200D01*
X117614286Y-81317200D02*
X117709524Y-81364819D01*
X117709524Y-81364819D02*
X117804762Y-81364819D01*
X118566667Y-80698152D02*
X118566667Y-81364819D01*
X118328572Y-80317200D02*
X118090477Y-81031485D01*
X118090477Y-81031485D02*
X118709524Y-81031485D01*
X194140475Y-77354819D02*
X194140475Y-78069104D01*
X194140475Y-78069104D02*
X194092856Y-78211961D01*
X194092856Y-78211961D02*
X193997618Y-78307200D01*
X193997618Y-78307200D02*
X193854761Y-78354819D01*
X193854761Y-78354819D02*
X193759523Y-78354819D01*
X194378571Y-78450057D02*
X195140475Y-78450057D01*
X195235714Y-77354819D02*
X195807142Y-77354819D01*
X195521428Y-78354819D02*
X195521428Y-77354819D01*
X196569047Y-77688152D02*
X196569047Y-78354819D01*
X196140476Y-77688152D02*
X196140476Y-78211961D01*
X196140476Y-78211961D02*
X196188095Y-78307200D01*
X196188095Y-78307200D02*
X196283333Y-78354819D01*
X196283333Y-78354819D02*
X196426190Y-78354819D01*
X196426190Y-78354819D02*
X196521428Y-78307200D01*
X196521428Y-78307200D02*
X196569047Y-78259580D01*
X197045238Y-78354819D02*
X197045238Y-77688152D01*
X197045238Y-77878628D02*
X197092857Y-77783390D01*
X197092857Y-77783390D02*
X197140476Y-77735771D01*
X197140476Y-77735771D02*
X197235714Y-77688152D01*
X197235714Y-77688152D02*
X197330952Y-77688152D01*
X197664286Y-77688152D02*
X197664286Y-78354819D01*
X197664286Y-77783390D02*
X197711905Y-77735771D01*
X197711905Y-77735771D02*
X197807143Y-77688152D01*
X197807143Y-77688152D02*
X197950000Y-77688152D01*
X197950000Y-77688152D02*
X198045238Y-77735771D01*
X198045238Y-77735771D02*
X198092857Y-77831009D01*
X198092857Y-77831009D02*
X198092857Y-78354819D01*
X198521429Y-77450057D02*
X198569048Y-77402438D01*
X198569048Y-77402438D02*
X198664286Y-77354819D01*
X198664286Y-77354819D02*
X198902381Y-77354819D01*
X198902381Y-77354819D02*
X198997619Y-77402438D01*
X198997619Y-77402438D02*
X199045238Y-77450057D01*
X199045238Y-77450057D02*
X199092857Y-77545295D01*
X199092857Y-77545295D02*
X199092857Y-77640533D01*
X199092857Y-77640533D02*
X199045238Y-77783390D01*
X199045238Y-77783390D02*
X198473810Y-78354819D01*
X198473810Y-78354819D02*
X199092857Y-78354819D01*
X113828571Y-60364819D02*
X113828571Y-61079104D01*
X113828571Y-61079104D02*
X113780952Y-61221961D01*
X113780952Y-61221961D02*
X113685714Y-61317200D01*
X113685714Y-61317200D02*
X113542857Y-61364819D01*
X113542857Y-61364819D02*
X113447619Y-61364819D01*
X114066667Y-61460057D02*
X114828571Y-61460057D01*
X115066667Y-61364819D02*
X115066667Y-60364819D01*
X115066667Y-60364819D02*
X115304762Y-60364819D01*
X115304762Y-60364819D02*
X115447619Y-60412438D01*
X115447619Y-60412438D02*
X115542857Y-60507676D01*
X115542857Y-60507676D02*
X115590476Y-60602914D01*
X115590476Y-60602914D02*
X115638095Y-60793390D01*
X115638095Y-60793390D02*
X115638095Y-60936247D01*
X115638095Y-60936247D02*
X115590476Y-61126723D01*
X115590476Y-61126723D02*
X115542857Y-61221961D01*
X115542857Y-61221961D02*
X115447619Y-61317200D01*
X115447619Y-61317200D02*
X115304762Y-61364819D01*
X115304762Y-61364819D02*
X115066667Y-61364819D01*
X116066667Y-61364819D02*
X116066667Y-60698152D01*
X116066667Y-60888628D02*
X116114286Y-60793390D01*
X116114286Y-60793390D02*
X116161905Y-60745771D01*
X116161905Y-60745771D02*
X116257143Y-60698152D01*
X116257143Y-60698152D02*
X116352381Y-60698152D01*
X116685715Y-61364819D02*
X116685715Y-60698152D01*
X116685715Y-60364819D02*
X116638096Y-60412438D01*
X116638096Y-60412438D02*
X116685715Y-60460057D01*
X116685715Y-60460057D02*
X116733334Y-60412438D01*
X116733334Y-60412438D02*
X116685715Y-60364819D01*
X116685715Y-60364819D02*
X116685715Y-60460057D01*
X117066667Y-60698152D02*
X117304762Y-61364819D01*
X117304762Y-61364819D02*
X117542857Y-60698152D01*
X118304762Y-61317200D02*
X118209524Y-61364819D01*
X118209524Y-61364819D02*
X118019048Y-61364819D01*
X118019048Y-61364819D02*
X117923810Y-61317200D01*
X117923810Y-61317200D02*
X117876191Y-61221961D01*
X117876191Y-61221961D02*
X117876191Y-60841009D01*
X117876191Y-60841009D02*
X117923810Y-60745771D01*
X117923810Y-60745771D02*
X118019048Y-60698152D01*
X118019048Y-60698152D02*
X118209524Y-60698152D01*
X118209524Y-60698152D02*
X118304762Y-60745771D01*
X118304762Y-60745771D02*
X118352381Y-60841009D01*
X118352381Y-60841009D02*
X118352381Y-60936247D01*
X118352381Y-60936247D02*
X117876191Y-61031485D01*
X119304762Y-61364819D02*
X118733334Y-61364819D01*
X119019048Y-61364819D02*
X119019048Y-60364819D01*
X119019048Y-60364819D02*
X118923810Y-60507676D01*
X118923810Y-60507676D02*
X118828572Y-60602914D01*
X118828572Y-60602914D02*
X118733334Y-60650533D01*
X193878571Y-97354819D02*
X193878571Y-98069104D01*
X193878571Y-98069104D02*
X193830952Y-98211961D01*
X193830952Y-98211961D02*
X193735714Y-98307200D01*
X193735714Y-98307200D02*
X193592857Y-98354819D01*
X193592857Y-98354819D02*
X193497619Y-98354819D01*
X194116667Y-98450057D02*
X194878571Y-98450057D01*
X195116667Y-98354819D02*
X195116667Y-97354819D01*
X195116667Y-97354819D02*
X195354762Y-97354819D01*
X195354762Y-97354819D02*
X195497619Y-97402438D01*
X195497619Y-97402438D02*
X195592857Y-97497676D01*
X195592857Y-97497676D02*
X195640476Y-97592914D01*
X195640476Y-97592914D02*
X195688095Y-97783390D01*
X195688095Y-97783390D02*
X195688095Y-97926247D01*
X195688095Y-97926247D02*
X195640476Y-98116723D01*
X195640476Y-98116723D02*
X195592857Y-98211961D01*
X195592857Y-98211961D02*
X195497619Y-98307200D01*
X195497619Y-98307200D02*
X195354762Y-98354819D01*
X195354762Y-98354819D02*
X195116667Y-98354819D01*
X196116667Y-98354819D02*
X196116667Y-97688152D01*
X196116667Y-97878628D02*
X196164286Y-97783390D01*
X196164286Y-97783390D02*
X196211905Y-97735771D01*
X196211905Y-97735771D02*
X196307143Y-97688152D01*
X196307143Y-97688152D02*
X196402381Y-97688152D01*
X196735715Y-98354819D02*
X196735715Y-97688152D01*
X196735715Y-97354819D02*
X196688096Y-97402438D01*
X196688096Y-97402438D02*
X196735715Y-97450057D01*
X196735715Y-97450057D02*
X196783334Y-97402438D01*
X196783334Y-97402438D02*
X196735715Y-97354819D01*
X196735715Y-97354819D02*
X196735715Y-97450057D01*
X197116667Y-97688152D02*
X197354762Y-98354819D01*
X197354762Y-98354819D02*
X197592857Y-97688152D01*
X198354762Y-98307200D02*
X198259524Y-98354819D01*
X198259524Y-98354819D02*
X198069048Y-98354819D01*
X198069048Y-98354819D02*
X197973810Y-98307200D01*
X197973810Y-98307200D02*
X197926191Y-98211961D01*
X197926191Y-98211961D02*
X197926191Y-97831009D01*
X197926191Y-97831009D02*
X197973810Y-97735771D01*
X197973810Y-97735771D02*
X198069048Y-97688152D01*
X198069048Y-97688152D02*
X198259524Y-97688152D01*
X198259524Y-97688152D02*
X198354762Y-97735771D01*
X198354762Y-97735771D02*
X198402381Y-97831009D01*
X198402381Y-97831009D02*
X198402381Y-97926247D01*
X198402381Y-97926247D02*
X197926191Y-98021485D01*
X198735715Y-97354819D02*
X199354762Y-97354819D01*
X199354762Y-97354819D02*
X199021429Y-97735771D01*
X199021429Y-97735771D02*
X199164286Y-97735771D01*
X199164286Y-97735771D02*
X199259524Y-97783390D01*
X199259524Y-97783390D02*
X199307143Y-97831009D01*
X199307143Y-97831009D02*
X199354762Y-97926247D01*
X199354762Y-97926247D02*
X199354762Y-98164342D01*
X199354762Y-98164342D02*
X199307143Y-98259580D01*
X199307143Y-98259580D02*
X199259524Y-98307200D01*
X199259524Y-98307200D02*
X199164286Y-98354819D01*
X199164286Y-98354819D02*
X198878572Y-98354819D01*
X198878572Y-98354819D02*
X198783334Y-98307200D01*
X198783334Y-98307200D02*
X198735715Y-98259580D01*
X168666666Y-101104819D02*
X168666666Y-101819104D01*
X168666666Y-101819104D02*
X168619047Y-101961961D01*
X168619047Y-101961961D02*
X168523809Y-102057200D01*
X168523809Y-102057200D02*
X168380952Y-102104819D01*
X168380952Y-102104819D02*
X168285714Y-102104819D01*
X169095238Y-101200057D02*
X169142857Y-101152438D01*
X169142857Y-101152438D02*
X169238095Y-101104819D01*
X169238095Y-101104819D02*
X169476190Y-101104819D01*
X169476190Y-101104819D02*
X169571428Y-101152438D01*
X169571428Y-101152438D02*
X169619047Y-101200057D01*
X169619047Y-101200057D02*
X169666666Y-101295295D01*
X169666666Y-101295295D02*
X169666666Y-101390533D01*
X169666666Y-101390533D02*
X169619047Y-101533390D01*
X169619047Y-101533390D02*
X169047619Y-102104819D01*
X169047619Y-102104819D02*
X169666666Y-102104819D01*
X194521428Y-87354819D02*
X194521428Y-88069104D01*
X194521428Y-88069104D02*
X194473809Y-88211961D01*
X194473809Y-88211961D02*
X194378571Y-88307200D01*
X194378571Y-88307200D02*
X194235714Y-88354819D01*
X194235714Y-88354819D02*
X194140476Y-88354819D01*
X194759524Y-88450057D02*
X195521428Y-88450057D01*
X196235714Y-88354819D02*
X195759524Y-88354819D01*
X195759524Y-88354819D02*
X195759524Y-87354819D01*
X196569048Y-88354819D02*
X196569048Y-87688152D01*
X196569048Y-87354819D02*
X196521429Y-87402438D01*
X196521429Y-87402438D02*
X196569048Y-87450057D01*
X196569048Y-87450057D02*
X196616667Y-87402438D01*
X196616667Y-87402438D02*
X196569048Y-87354819D01*
X196569048Y-87354819D02*
X196569048Y-87450057D01*
X196902381Y-87688152D02*
X197283333Y-87688152D01*
X197045238Y-88354819D02*
X197045238Y-87497676D01*
X197045238Y-87497676D02*
X197092857Y-87402438D01*
X197092857Y-87402438D02*
X197188095Y-87354819D01*
X197188095Y-87354819D02*
X197283333Y-87354819D01*
X197473810Y-87688152D02*
X197854762Y-87688152D01*
X197616667Y-87354819D02*
X197616667Y-88211961D01*
X197616667Y-88211961D02*
X197664286Y-88307200D01*
X197664286Y-88307200D02*
X197759524Y-88354819D01*
X197759524Y-88354819D02*
X197854762Y-88354819D01*
X198092858Y-87354819D02*
X198711905Y-87354819D01*
X198711905Y-87354819D02*
X198378572Y-87735771D01*
X198378572Y-87735771D02*
X198521429Y-87735771D01*
X198521429Y-87735771D02*
X198616667Y-87783390D01*
X198616667Y-87783390D02*
X198664286Y-87831009D01*
X198664286Y-87831009D02*
X198711905Y-87926247D01*
X198711905Y-87926247D02*
X198711905Y-88164342D01*
X198711905Y-88164342D02*
X198664286Y-88259580D01*
X198664286Y-88259580D02*
X198616667Y-88307200D01*
X198616667Y-88307200D02*
X198521429Y-88354819D01*
X198521429Y-88354819D02*
X198235715Y-88354819D01*
X198235715Y-88354819D02*
X198140477Y-88307200D01*
X198140477Y-88307200D02*
X198092858Y-88259580D01*
X95934819Y-64693333D02*
X96649104Y-64693333D01*
X96649104Y-64693333D02*
X96791961Y-64740952D01*
X96791961Y-64740952D02*
X96887200Y-64836190D01*
X96887200Y-64836190D02*
X96934819Y-64979047D01*
X96934819Y-64979047D02*
X96934819Y-65074285D01*
X95934819Y-64312380D02*
X95934819Y-63693333D01*
X95934819Y-63693333D02*
X96315771Y-64026666D01*
X96315771Y-64026666D02*
X96315771Y-63883809D01*
X96315771Y-63883809D02*
X96363390Y-63788571D01*
X96363390Y-63788571D02*
X96411009Y-63740952D01*
X96411009Y-63740952D02*
X96506247Y-63693333D01*
X96506247Y-63693333D02*
X96744342Y-63693333D01*
X96744342Y-63693333D02*
X96839580Y-63740952D01*
X96839580Y-63740952D02*
X96887200Y-63788571D01*
X96887200Y-63788571D02*
X96934819Y-63883809D01*
X96934819Y-63883809D02*
X96934819Y-64169523D01*
X96934819Y-64169523D02*
X96887200Y-64264761D01*
X96887200Y-64264761D02*
X96839580Y-64312380D01*
X143516666Y-60094819D02*
X143516666Y-60809104D01*
X143516666Y-60809104D02*
X143469047Y-60951961D01*
X143469047Y-60951961D02*
X143373809Y-61047200D01*
X143373809Y-61047200D02*
X143230952Y-61094819D01*
X143230952Y-61094819D02*
X143135714Y-61094819D01*
X144516666Y-61094819D02*
X143945238Y-61094819D01*
X144230952Y-61094819D02*
X144230952Y-60094819D01*
X144230952Y-60094819D02*
X144135714Y-60237676D01*
X144135714Y-60237676D02*
X144040476Y-60332914D01*
X144040476Y-60332914D02*
X143945238Y-60380533D01*
X95863095Y-109054819D02*
X95863095Y-108054819D01*
X95863095Y-108531009D02*
X96434523Y-108531009D01*
X96434523Y-109054819D02*
X96434523Y-108054819D01*
X96863095Y-108150057D02*
X96910714Y-108102438D01*
X96910714Y-108102438D02*
X97005952Y-108054819D01*
X97005952Y-108054819D02*
X97244047Y-108054819D01*
X97244047Y-108054819D02*
X97339285Y-108102438D01*
X97339285Y-108102438D02*
X97386904Y-108150057D01*
X97386904Y-108150057D02*
X97434523Y-108245295D01*
X97434523Y-108245295D02*
X97434523Y-108340533D01*
X97434523Y-108340533D02*
X97386904Y-108483390D01*
X97386904Y-108483390D02*
X96815476Y-109054819D01*
X96815476Y-109054819D02*
X97434523Y-109054819D01*
X215963095Y-109054819D02*
X215963095Y-108054819D01*
X215963095Y-108531009D02*
X216534523Y-108531009D01*
X216534523Y-109054819D02*
X216534523Y-108054819D01*
X217439285Y-108388152D02*
X217439285Y-109054819D01*
X217201190Y-108007200D02*
X216963095Y-108721485D01*
X216963095Y-108721485D02*
X217582142Y-108721485D01*
X95934819Y-94693333D02*
X96649104Y-94693333D01*
X96649104Y-94693333D02*
X96791961Y-94740952D01*
X96791961Y-94740952D02*
X96887200Y-94836190D01*
X96887200Y-94836190D02*
X96934819Y-94979047D01*
X96934819Y-94979047D02*
X96934819Y-95074285D01*
X95934819Y-93788571D02*
X95934819Y-93979047D01*
X95934819Y-93979047D02*
X95982438Y-94074285D01*
X95982438Y-94074285D02*
X96030057Y-94121904D01*
X96030057Y-94121904D02*
X96172914Y-94217142D01*
X96172914Y-94217142D02*
X96363390Y-94264761D01*
X96363390Y-94264761D02*
X96744342Y-94264761D01*
X96744342Y-94264761D02*
X96839580Y-94217142D01*
X96839580Y-94217142D02*
X96887200Y-94169523D01*
X96887200Y-94169523D02*
X96934819Y-94074285D01*
X96934819Y-94074285D02*
X96934819Y-93883809D01*
X96934819Y-93883809D02*
X96887200Y-93788571D01*
X96887200Y-93788571D02*
X96839580Y-93740952D01*
X96839580Y-93740952D02*
X96744342Y-93693333D01*
X96744342Y-93693333D02*
X96506247Y-93693333D01*
X96506247Y-93693333D02*
X96411009Y-93740952D01*
X96411009Y-93740952D02*
X96363390Y-93788571D01*
X96363390Y-93788571D02*
X96315771Y-93883809D01*
X96315771Y-93883809D02*
X96315771Y-94074285D01*
X96315771Y-94074285D02*
X96363390Y-94169523D01*
X96363390Y-94169523D02*
X96411009Y-94217142D01*
X96411009Y-94217142D02*
X96506247Y-94264761D01*
X114090475Y-100364819D02*
X114090475Y-101079104D01*
X114090475Y-101079104D02*
X114042856Y-101221961D01*
X114042856Y-101221961D02*
X113947618Y-101317200D01*
X113947618Y-101317200D02*
X113804761Y-101364819D01*
X113804761Y-101364819D02*
X113709523Y-101364819D01*
X114328571Y-101460057D02*
X115090475Y-101460057D01*
X115185714Y-100364819D02*
X115757142Y-100364819D01*
X115471428Y-101364819D02*
X115471428Y-100364819D01*
X116519047Y-100698152D02*
X116519047Y-101364819D01*
X116090476Y-100698152D02*
X116090476Y-101221961D01*
X116090476Y-101221961D02*
X116138095Y-101317200D01*
X116138095Y-101317200D02*
X116233333Y-101364819D01*
X116233333Y-101364819D02*
X116376190Y-101364819D01*
X116376190Y-101364819D02*
X116471428Y-101317200D01*
X116471428Y-101317200D02*
X116519047Y-101269580D01*
X116995238Y-101364819D02*
X116995238Y-100698152D01*
X116995238Y-100888628D02*
X117042857Y-100793390D01*
X117042857Y-100793390D02*
X117090476Y-100745771D01*
X117090476Y-100745771D02*
X117185714Y-100698152D01*
X117185714Y-100698152D02*
X117280952Y-100698152D01*
X117614286Y-100698152D02*
X117614286Y-101364819D01*
X117614286Y-100793390D02*
X117661905Y-100745771D01*
X117661905Y-100745771D02*
X117757143Y-100698152D01*
X117757143Y-100698152D02*
X117900000Y-100698152D01*
X117900000Y-100698152D02*
X117995238Y-100745771D01*
X117995238Y-100745771D02*
X118042857Y-100841009D01*
X118042857Y-100841009D02*
X118042857Y-101364819D01*
X118947619Y-100698152D02*
X118947619Y-101364819D01*
X118709524Y-100317200D02*
X118471429Y-101031485D01*
X118471429Y-101031485D02*
X119090476Y-101031485D01*
X194140475Y-107354819D02*
X194140475Y-108069104D01*
X194140475Y-108069104D02*
X194092856Y-108211961D01*
X194092856Y-108211961D02*
X193997618Y-108307200D01*
X193997618Y-108307200D02*
X193854761Y-108354819D01*
X193854761Y-108354819D02*
X193759523Y-108354819D01*
X194378571Y-108450057D02*
X195140475Y-108450057D01*
X195235714Y-107354819D02*
X195807142Y-107354819D01*
X195521428Y-108354819D02*
X195521428Y-107354819D01*
X196569047Y-107688152D02*
X196569047Y-108354819D01*
X196140476Y-107688152D02*
X196140476Y-108211961D01*
X196140476Y-108211961D02*
X196188095Y-108307200D01*
X196188095Y-108307200D02*
X196283333Y-108354819D01*
X196283333Y-108354819D02*
X196426190Y-108354819D01*
X196426190Y-108354819D02*
X196521428Y-108307200D01*
X196521428Y-108307200D02*
X196569047Y-108259580D01*
X197045238Y-108354819D02*
X197045238Y-107688152D01*
X197045238Y-107878628D02*
X197092857Y-107783390D01*
X197092857Y-107783390D02*
X197140476Y-107735771D01*
X197140476Y-107735771D02*
X197235714Y-107688152D01*
X197235714Y-107688152D02*
X197330952Y-107688152D01*
X197664286Y-107688152D02*
X197664286Y-108354819D01*
X197664286Y-107783390D02*
X197711905Y-107735771D01*
X197711905Y-107735771D02*
X197807143Y-107688152D01*
X197807143Y-107688152D02*
X197950000Y-107688152D01*
X197950000Y-107688152D02*
X198045238Y-107735771D01*
X198045238Y-107735771D02*
X198092857Y-107831009D01*
X198092857Y-107831009D02*
X198092857Y-108354819D01*
X198473810Y-107354819D02*
X199092857Y-107354819D01*
X199092857Y-107354819D02*
X198759524Y-107735771D01*
X198759524Y-107735771D02*
X198902381Y-107735771D01*
X198902381Y-107735771D02*
X198997619Y-107783390D01*
X198997619Y-107783390D02*
X199045238Y-107831009D01*
X199045238Y-107831009D02*
X199092857Y-107926247D01*
X199092857Y-107926247D02*
X199092857Y-108164342D01*
X199092857Y-108164342D02*
X199045238Y-108259580D01*
X199045238Y-108259580D02*
X198997619Y-108307200D01*
X198997619Y-108307200D02*
X198902381Y-108354819D01*
X198902381Y-108354819D02*
X198616667Y-108354819D01*
X198616667Y-108354819D02*
X198521429Y-108307200D01*
X198521429Y-108307200D02*
X198473810Y-108259580D01*
X194521428Y-57354819D02*
X194521428Y-58069104D01*
X194521428Y-58069104D02*
X194473809Y-58211961D01*
X194473809Y-58211961D02*
X194378571Y-58307200D01*
X194378571Y-58307200D02*
X194235714Y-58354819D01*
X194235714Y-58354819D02*
X194140476Y-58354819D01*
X194759524Y-58450057D02*
X195521428Y-58450057D01*
X196235714Y-58354819D02*
X195759524Y-58354819D01*
X195759524Y-58354819D02*
X195759524Y-57354819D01*
X196569048Y-58354819D02*
X196569048Y-57688152D01*
X196569048Y-57354819D02*
X196521429Y-57402438D01*
X196521429Y-57402438D02*
X196569048Y-57450057D01*
X196569048Y-57450057D02*
X196616667Y-57402438D01*
X196616667Y-57402438D02*
X196569048Y-57354819D01*
X196569048Y-57354819D02*
X196569048Y-57450057D01*
X196902381Y-57688152D02*
X197283333Y-57688152D01*
X197045238Y-58354819D02*
X197045238Y-57497676D01*
X197045238Y-57497676D02*
X197092857Y-57402438D01*
X197092857Y-57402438D02*
X197188095Y-57354819D01*
X197188095Y-57354819D02*
X197283333Y-57354819D01*
X197473810Y-57688152D02*
X197854762Y-57688152D01*
X197616667Y-57354819D02*
X197616667Y-58211961D01*
X197616667Y-58211961D02*
X197664286Y-58307200D01*
X197664286Y-58307200D02*
X197759524Y-58354819D01*
X197759524Y-58354819D02*
X197854762Y-58354819D01*
X198140477Y-57450057D02*
X198188096Y-57402438D01*
X198188096Y-57402438D02*
X198283334Y-57354819D01*
X198283334Y-57354819D02*
X198521429Y-57354819D01*
X198521429Y-57354819D02*
X198616667Y-57402438D01*
X198616667Y-57402438D02*
X198664286Y-57450057D01*
X198664286Y-57450057D02*
X198711905Y-57545295D01*
X198711905Y-57545295D02*
X198711905Y-57640533D01*
X198711905Y-57640533D02*
X198664286Y-57783390D01*
X198664286Y-57783390D02*
X198092858Y-58354819D01*
X198092858Y-58354819D02*
X198711905Y-58354819D01*
X114471428Y-50364819D02*
X114471428Y-51079104D01*
X114471428Y-51079104D02*
X114423809Y-51221961D01*
X114423809Y-51221961D02*
X114328571Y-51317200D01*
X114328571Y-51317200D02*
X114185714Y-51364819D01*
X114185714Y-51364819D02*
X114090476Y-51364819D01*
X114709524Y-51460057D02*
X115471428Y-51460057D01*
X116185714Y-51364819D02*
X115709524Y-51364819D01*
X115709524Y-51364819D02*
X115709524Y-50364819D01*
X116519048Y-51364819D02*
X116519048Y-50698152D01*
X116519048Y-50364819D02*
X116471429Y-50412438D01*
X116471429Y-50412438D02*
X116519048Y-50460057D01*
X116519048Y-50460057D02*
X116566667Y-50412438D01*
X116566667Y-50412438D02*
X116519048Y-50364819D01*
X116519048Y-50364819D02*
X116519048Y-50460057D01*
X116852381Y-50698152D02*
X117233333Y-50698152D01*
X116995238Y-51364819D02*
X116995238Y-50507676D01*
X116995238Y-50507676D02*
X117042857Y-50412438D01*
X117042857Y-50412438D02*
X117138095Y-50364819D01*
X117138095Y-50364819D02*
X117233333Y-50364819D01*
X117423810Y-50698152D02*
X117804762Y-50698152D01*
X117566667Y-50364819D02*
X117566667Y-51221961D01*
X117566667Y-51221961D02*
X117614286Y-51317200D01*
X117614286Y-51317200D02*
X117709524Y-51364819D01*
X117709524Y-51364819D02*
X117804762Y-51364819D01*
X118661905Y-51364819D02*
X118090477Y-51364819D01*
X118376191Y-51364819D02*
X118376191Y-50364819D01*
X118376191Y-50364819D02*
X118280953Y-50507676D01*
X118280953Y-50507676D02*
X118185715Y-50602914D01*
X118185715Y-50602914D02*
X118090477Y-50650533D01*
X178666666Y-101224819D02*
X178666666Y-101939104D01*
X178666666Y-101939104D02*
X178619047Y-102081961D01*
X178619047Y-102081961D02*
X178523809Y-102177200D01*
X178523809Y-102177200D02*
X178380952Y-102224819D01*
X178380952Y-102224819D02*
X178285714Y-102224819D01*
X179047619Y-101224819D02*
X179714285Y-101224819D01*
X179714285Y-101224819D02*
X179285714Y-102224819D01*
X215824819Y-64783333D02*
X216539104Y-64783333D01*
X216539104Y-64783333D02*
X216681961Y-64830952D01*
X216681961Y-64830952D02*
X216777200Y-64926190D01*
X216777200Y-64926190D02*
X216824819Y-65069047D01*
X216824819Y-65069047D02*
X216824819Y-65164285D01*
X216158152Y-63878571D02*
X216824819Y-63878571D01*
X215777200Y-64116666D02*
X216491485Y-64354761D01*
X216491485Y-64354761D02*
X216491485Y-63735714D01*
X193878571Y-67354819D02*
X193878571Y-68069104D01*
X193878571Y-68069104D02*
X193830952Y-68211961D01*
X193830952Y-68211961D02*
X193735714Y-68307200D01*
X193735714Y-68307200D02*
X193592857Y-68354819D01*
X193592857Y-68354819D02*
X193497619Y-68354819D01*
X194116667Y-68450057D02*
X194878571Y-68450057D01*
X195116667Y-68354819D02*
X195116667Y-67354819D01*
X195116667Y-67354819D02*
X195354762Y-67354819D01*
X195354762Y-67354819D02*
X195497619Y-67402438D01*
X195497619Y-67402438D02*
X195592857Y-67497676D01*
X195592857Y-67497676D02*
X195640476Y-67592914D01*
X195640476Y-67592914D02*
X195688095Y-67783390D01*
X195688095Y-67783390D02*
X195688095Y-67926247D01*
X195688095Y-67926247D02*
X195640476Y-68116723D01*
X195640476Y-68116723D02*
X195592857Y-68211961D01*
X195592857Y-68211961D02*
X195497619Y-68307200D01*
X195497619Y-68307200D02*
X195354762Y-68354819D01*
X195354762Y-68354819D02*
X195116667Y-68354819D01*
X196116667Y-68354819D02*
X196116667Y-67688152D01*
X196116667Y-67878628D02*
X196164286Y-67783390D01*
X196164286Y-67783390D02*
X196211905Y-67735771D01*
X196211905Y-67735771D02*
X196307143Y-67688152D01*
X196307143Y-67688152D02*
X196402381Y-67688152D01*
X196735715Y-68354819D02*
X196735715Y-67688152D01*
X196735715Y-67354819D02*
X196688096Y-67402438D01*
X196688096Y-67402438D02*
X196735715Y-67450057D01*
X196735715Y-67450057D02*
X196783334Y-67402438D01*
X196783334Y-67402438D02*
X196735715Y-67354819D01*
X196735715Y-67354819D02*
X196735715Y-67450057D01*
X197116667Y-67688152D02*
X197354762Y-68354819D01*
X197354762Y-68354819D02*
X197592857Y-67688152D01*
X198354762Y-68307200D02*
X198259524Y-68354819D01*
X198259524Y-68354819D02*
X198069048Y-68354819D01*
X198069048Y-68354819D02*
X197973810Y-68307200D01*
X197973810Y-68307200D02*
X197926191Y-68211961D01*
X197926191Y-68211961D02*
X197926191Y-67831009D01*
X197926191Y-67831009D02*
X197973810Y-67735771D01*
X197973810Y-67735771D02*
X198069048Y-67688152D01*
X198069048Y-67688152D02*
X198259524Y-67688152D01*
X198259524Y-67688152D02*
X198354762Y-67735771D01*
X198354762Y-67735771D02*
X198402381Y-67831009D01*
X198402381Y-67831009D02*
X198402381Y-67926247D01*
X198402381Y-67926247D02*
X197926191Y-68021485D01*
X198783334Y-67450057D02*
X198830953Y-67402438D01*
X198830953Y-67402438D02*
X198926191Y-67354819D01*
X198926191Y-67354819D02*
X199164286Y-67354819D01*
X199164286Y-67354819D02*
X199259524Y-67402438D01*
X199259524Y-67402438D02*
X199307143Y-67450057D01*
X199307143Y-67450057D02*
X199354762Y-67545295D01*
X199354762Y-67545295D02*
X199354762Y-67640533D01*
X199354762Y-67640533D02*
X199307143Y-67783390D01*
X199307143Y-67783390D02*
X198735715Y-68354819D01*
X198735715Y-68354819D02*
X199354762Y-68354819D01*
D13*
%TO.C,J5*%
X207530000Y-93070000D02*
X207530000Y-95830000D01*
X212720000Y-93070000D02*
X207530000Y-93070000D01*
X212720000Y-93070000D02*
X212720000Y-95830000D01*
X212720000Y-95830000D02*
X207530000Y-95830000D01*
X213990000Y-93070000D02*
X215370000Y-93070000D01*
X215370000Y-93070000D02*
X215370000Y-94450000D01*
%TO.C,J_Drive4*%
X109040000Y-91700000D02*
X109040000Y-92950000D01*
X109340000Y-92000000D02*
X109340000Y-96720000D01*
X109340000Y-93310000D02*
X109950000Y-93310000D01*
X109340000Y-94610000D02*
X109950000Y-94610000D01*
X109340000Y-96720000D02*
X123460000Y-96720000D01*
X109950000Y-92610000D02*
X109950000Y-96110000D01*
X109950000Y-96110000D02*
X122850000Y-96110000D01*
X110290000Y-91700000D02*
X109040000Y-91700000D01*
X110800000Y-91800000D02*
X110800000Y-92000000D01*
X111100000Y-91800000D02*
X110800000Y-91800000D01*
X111100000Y-91900000D02*
X110800000Y-91900000D01*
X111100000Y-92000000D02*
X111100000Y-91800000D01*
X111900000Y-92000000D02*
X111900000Y-92610000D01*
X111900000Y-92610000D02*
X109950000Y-92610000D01*
X112300000Y-95610000D02*
X112500000Y-95610000D01*
X112300000Y-96110000D02*
X112300000Y-95610000D01*
X112400000Y-96110000D02*
X112400000Y-95610000D01*
X112500000Y-95610000D02*
X112500000Y-96110000D01*
X114300000Y-95610000D02*
X114500000Y-95610000D01*
X114300000Y-96110000D02*
X114300000Y-95610000D01*
X114400000Y-96110000D02*
X114400000Y-95610000D01*
X114500000Y-95610000D02*
X114500000Y-96110000D01*
X116300000Y-95610000D02*
X116500000Y-95610000D01*
X116300000Y-96110000D02*
X116300000Y-95610000D01*
X116400000Y-96110000D02*
X116400000Y-95610000D01*
X116500000Y-95610000D02*
X116500000Y-96110000D01*
X118300000Y-95610000D02*
X118500000Y-95610000D01*
X118300000Y-96110000D02*
X118300000Y-95610000D01*
X118400000Y-96110000D02*
X118400000Y-95610000D01*
X118500000Y-95610000D02*
X118500000Y-96110000D01*
X120300000Y-95610000D02*
X120500000Y-95610000D01*
X120300000Y-96110000D02*
X120300000Y-95610000D01*
X120400000Y-96110000D02*
X120400000Y-95610000D01*
X120500000Y-95610000D02*
X120500000Y-96110000D01*
X120900000Y-92610000D02*
X120900000Y-92000000D01*
X122850000Y-92610000D02*
X120900000Y-92610000D01*
X122850000Y-96110000D02*
X122850000Y-92610000D01*
X123460000Y-92000000D02*
X109340000Y-92000000D01*
X123460000Y-93310000D02*
X122850000Y-93310000D01*
X123460000Y-94610000D02*
X122850000Y-94610000D01*
X123460000Y-96720000D02*
X123460000Y-92000000D01*
%TO.C,J_Turn1*%
X109040000Y-71700000D02*
X109040000Y-72950000D01*
X109340000Y-72000000D02*
X109340000Y-76720000D01*
X109340000Y-73310000D02*
X109950000Y-73310000D01*
X109340000Y-74610000D02*
X109950000Y-74610000D01*
X109340000Y-76720000D02*
X123460000Y-76720000D01*
X109950000Y-72610000D02*
X109950000Y-76110000D01*
X109950000Y-76110000D02*
X122850000Y-76110000D01*
X110290000Y-71700000D02*
X109040000Y-71700000D01*
X110800000Y-71800000D02*
X110800000Y-72000000D01*
X111100000Y-71800000D02*
X110800000Y-71800000D01*
X111100000Y-71900000D02*
X110800000Y-71900000D01*
X111100000Y-72000000D02*
X111100000Y-71800000D01*
X111900000Y-72000000D02*
X111900000Y-72610000D01*
X111900000Y-72610000D02*
X109950000Y-72610000D01*
X112300000Y-75610000D02*
X112500000Y-75610000D01*
X112300000Y-76110000D02*
X112300000Y-75610000D01*
X112400000Y-76110000D02*
X112400000Y-75610000D01*
X112500000Y-75610000D02*
X112500000Y-76110000D01*
X114300000Y-75610000D02*
X114500000Y-75610000D01*
X114300000Y-76110000D02*
X114300000Y-75610000D01*
X114400000Y-76110000D02*
X114400000Y-75610000D01*
X114500000Y-75610000D02*
X114500000Y-76110000D01*
X116300000Y-75610000D02*
X116500000Y-75610000D01*
X116300000Y-76110000D02*
X116300000Y-75610000D01*
X116400000Y-76110000D02*
X116400000Y-75610000D01*
X116500000Y-75610000D02*
X116500000Y-76110000D01*
X118300000Y-75610000D02*
X118500000Y-75610000D01*
X118300000Y-76110000D02*
X118300000Y-75610000D01*
X118400000Y-76110000D02*
X118400000Y-75610000D01*
X118500000Y-75610000D02*
X118500000Y-76110000D01*
X120300000Y-75610000D02*
X120500000Y-75610000D01*
X120300000Y-76110000D02*
X120300000Y-75610000D01*
X120400000Y-76110000D02*
X120400000Y-75610000D01*
X120500000Y-75610000D02*
X120500000Y-76110000D01*
X120900000Y-72610000D02*
X120900000Y-72000000D01*
X122850000Y-72610000D02*
X120900000Y-72610000D01*
X122850000Y-76110000D02*
X122850000Y-72610000D01*
X123460000Y-72000000D02*
X109340000Y-72000000D01*
X123460000Y-73310000D02*
X122850000Y-73310000D01*
X123460000Y-74610000D02*
X122850000Y-74610000D01*
X123460000Y-76720000D02*
X123460000Y-72000000D01*
%TO.C,J8*%
X132520000Y-64680000D02*
X132520000Y-100300000D01*
X132520000Y-64680000D02*
X135180000Y-64680000D01*
X132520000Y-100300000D02*
X135180000Y-100300000D01*
X133850000Y-62080000D02*
X135180000Y-62080000D01*
X135180000Y-62080000D02*
X135180000Y-63410000D01*
X135180000Y-64680000D02*
X135180000Y-100300000D01*
%TO.C,J_Lift4*%
X109040000Y-81700000D02*
X109040000Y-82950000D01*
X109340000Y-82000000D02*
X109340000Y-86720000D01*
X109340000Y-83310000D02*
X109950000Y-83310000D01*
X109340000Y-84610000D02*
X109950000Y-84610000D01*
X109340000Y-86720000D02*
X123460000Y-86720000D01*
X109950000Y-82610000D02*
X109950000Y-86110000D01*
X109950000Y-86110000D02*
X122850000Y-86110000D01*
X110290000Y-81700000D02*
X109040000Y-81700000D01*
X110800000Y-81800000D02*
X110800000Y-82000000D01*
X111100000Y-81800000D02*
X110800000Y-81800000D01*
X111100000Y-81900000D02*
X110800000Y-81900000D01*
X111100000Y-82000000D02*
X111100000Y-81800000D01*
X111900000Y-82000000D02*
X111900000Y-82610000D01*
X111900000Y-82610000D02*
X109950000Y-82610000D01*
X112300000Y-85610000D02*
X112500000Y-85610000D01*
X112300000Y-86110000D02*
X112300000Y-85610000D01*
X112400000Y-86110000D02*
X112400000Y-85610000D01*
X112500000Y-85610000D02*
X112500000Y-86110000D01*
X114300000Y-85610000D02*
X114500000Y-85610000D01*
X114300000Y-86110000D02*
X114300000Y-85610000D01*
X114400000Y-86110000D02*
X114400000Y-85610000D01*
X114500000Y-85610000D02*
X114500000Y-86110000D01*
X116300000Y-85610000D02*
X116500000Y-85610000D01*
X116300000Y-86110000D02*
X116300000Y-85610000D01*
X116400000Y-86110000D02*
X116400000Y-85610000D01*
X116500000Y-85610000D02*
X116500000Y-86110000D01*
X118300000Y-85610000D02*
X118500000Y-85610000D01*
X118300000Y-86110000D02*
X118300000Y-85610000D01*
X118400000Y-86110000D02*
X118400000Y-85610000D01*
X118500000Y-85610000D02*
X118500000Y-86110000D01*
X120300000Y-85610000D02*
X120500000Y-85610000D01*
X120300000Y-86110000D02*
X120300000Y-85610000D01*
X120400000Y-86110000D02*
X120400000Y-85610000D01*
X120500000Y-85610000D02*
X120500000Y-86110000D01*
X120900000Y-82610000D02*
X120900000Y-82000000D01*
X122850000Y-82610000D02*
X120900000Y-82610000D01*
X122850000Y-86110000D02*
X122850000Y-82610000D01*
X123460000Y-82000000D02*
X109340000Y-82000000D01*
X123460000Y-83310000D02*
X122850000Y-83310000D01*
X123460000Y-84610000D02*
X122850000Y-84610000D01*
X123460000Y-86720000D02*
X123460000Y-82000000D01*
%TO.C,J_Turn2*%
X189390000Y-72090000D02*
X189390000Y-76810000D01*
X189390000Y-74200000D02*
X190000000Y-74200000D01*
X189390000Y-75500000D02*
X190000000Y-75500000D01*
X189390000Y-76810000D02*
X203510000Y-76810000D01*
X190000000Y-72700000D02*
X190000000Y-76200000D01*
X190000000Y-76200000D02*
X191950000Y-76200000D01*
X191950000Y-76200000D02*
X191950000Y-76810000D01*
X192350000Y-73200000D02*
X192350000Y-72700000D01*
X192450000Y-72700000D02*
X192450000Y-73200000D01*
X192550000Y-72700000D02*
X192550000Y-73200000D01*
X192550000Y-73200000D02*
X192350000Y-73200000D01*
X194350000Y-73200000D02*
X194350000Y-72700000D01*
X194450000Y-72700000D02*
X194450000Y-73200000D01*
X194550000Y-72700000D02*
X194550000Y-73200000D01*
X194550000Y-73200000D02*
X194350000Y-73200000D01*
X196350000Y-73200000D02*
X196350000Y-72700000D01*
X196450000Y-72700000D02*
X196450000Y-73200000D01*
X196550000Y-72700000D02*
X196550000Y-73200000D01*
X196550000Y-73200000D02*
X196350000Y-73200000D01*
X198350000Y-73200000D02*
X198350000Y-72700000D01*
X198450000Y-72700000D02*
X198450000Y-73200000D01*
X198550000Y-72700000D02*
X198550000Y-73200000D01*
X198550000Y-73200000D02*
X198350000Y-73200000D01*
X200350000Y-73200000D02*
X200350000Y-72700000D01*
X200450000Y-72700000D02*
X200450000Y-73200000D01*
X200550000Y-72700000D02*
X200550000Y-73200000D01*
X200550000Y-73200000D02*
X200350000Y-73200000D01*
X200950000Y-76200000D02*
X202900000Y-76200000D01*
X200950000Y-76810000D02*
X200950000Y-76200000D01*
X201750000Y-76810000D02*
X201750000Y-77010000D01*
X201750000Y-76910000D02*
X202050000Y-76910000D01*
X201750000Y-77010000D02*
X202050000Y-77010000D01*
X202050000Y-77010000D02*
X202050000Y-76810000D01*
X202560000Y-77110000D02*
X203810000Y-77110000D01*
X202900000Y-72700000D02*
X190000000Y-72700000D01*
X202900000Y-76200000D02*
X202900000Y-72700000D01*
X203510000Y-72090000D02*
X189390000Y-72090000D01*
X203510000Y-74200000D02*
X202900000Y-74200000D01*
X203510000Y-75500000D02*
X202900000Y-75500000D01*
X203510000Y-76810000D02*
X203510000Y-72090000D01*
X203810000Y-77110000D02*
X203810000Y-75860000D01*
%TO.C,J_Drive1*%
X109040000Y-61700000D02*
X109040000Y-62950000D01*
X109340000Y-62000000D02*
X109340000Y-66720000D01*
X109340000Y-63310000D02*
X109950000Y-63310000D01*
X109340000Y-64610000D02*
X109950000Y-64610000D01*
X109340000Y-66720000D02*
X123460000Y-66720000D01*
X109950000Y-62610000D02*
X109950000Y-66110000D01*
X109950000Y-66110000D02*
X122850000Y-66110000D01*
X110290000Y-61700000D02*
X109040000Y-61700000D01*
X110800000Y-61800000D02*
X110800000Y-62000000D01*
X111100000Y-61800000D02*
X110800000Y-61800000D01*
X111100000Y-61900000D02*
X110800000Y-61900000D01*
X111100000Y-62000000D02*
X111100000Y-61800000D01*
X111900000Y-62000000D02*
X111900000Y-62610000D01*
X111900000Y-62610000D02*
X109950000Y-62610000D01*
X112300000Y-65610000D02*
X112500000Y-65610000D01*
X112300000Y-66110000D02*
X112300000Y-65610000D01*
X112400000Y-66110000D02*
X112400000Y-65610000D01*
X112500000Y-65610000D02*
X112500000Y-66110000D01*
X114300000Y-65610000D02*
X114500000Y-65610000D01*
X114300000Y-66110000D02*
X114300000Y-65610000D01*
X114400000Y-66110000D02*
X114400000Y-65610000D01*
X114500000Y-65610000D02*
X114500000Y-66110000D01*
X116300000Y-65610000D02*
X116500000Y-65610000D01*
X116300000Y-66110000D02*
X116300000Y-65610000D01*
X116400000Y-66110000D02*
X116400000Y-65610000D01*
X116500000Y-65610000D02*
X116500000Y-66110000D01*
X118300000Y-65610000D02*
X118500000Y-65610000D01*
X118300000Y-66110000D02*
X118300000Y-65610000D01*
X118400000Y-66110000D02*
X118400000Y-65610000D01*
X118500000Y-65610000D02*
X118500000Y-66110000D01*
X120300000Y-65610000D02*
X120500000Y-65610000D01*
X120300000Y-66110000D02*
X120300000Y-65610000D01*
X120400000Y-66110000D02*
X120400000Y-65610000D01*
X120500000Y-65610000D02*
X120500000Y-66110000D01*
X120900000Y-62610000D02*
X120900000Y-62000000D01*
X122850000Y-62610000D02*
X120900000Y-62610000D01*
X122850000Y-66110000D02*
X122850000Y-62610000D01*
X123460000Y-62000000D02*
X109340000Y-62000000D01*
X123460000Y-63310000D02*
X122850000Y-63310000D01*
X123460000Y-64610000D02*
X122850000Y-64610000D01*
X123460000Y-66720000D02*
X123460000Y-62000000D01*
%TO.C,J_Drive3*%
X189390000Y-92090000D02*
X189390000Y-96810000D01*
X189390000Y-94200000D02*
X190000000Y-94200000D01*
X189390000Y-95500000D02*
X190000000Y-95500000D01*
X189390000Y-96810000D02*
X203510000Y-96810000D01*
X190000000Y-92700000D02*
X190000000Y-96200000D01*
X190000000Y-96200000D02*
X191950000Y-96200000D01*
X191950000Y-96200000D02*
X191950000Y-96810000D01*
X192350000Y-93200000D02*
X192350000Y-92700000D01*
X192450000Y-92700000D02*
X192450000Y-93200000D01*
X192550000Y-92700000D02*
X192550000Y-93200000D01*
X192550000Y-93200000D02*
X192350000Y-93200000D01*
X194350000Y-93200000D02*
X194350000Y-92700000D01*
X194450000Y-92700000D02*
X194450000Y-93200000D01*
X194550000Y-92700000D02*
X194550000Y-93200000D01*
X194550000Y-93200000D02*
X194350000Y-93200000D01*
X196350000Y-93200000D02*
X196350000Y-92700000D01*
X196450000Y-92700000D02*
X196450000Y-93200000D01*
X196550000Y-92700000D02*
X196550000Y-93200000D01*
X196550000Y-93200000D02*
X196350000Y-93200000D01*
X198350000Y-93200000D02*
X198350000Y-92700000D01*
X198450000Y-92700000D02*
X198450000Y-93200000D01*
X198550000Y-92700000D02*
X198550000Y-93200000D01*
X198550000Y-93200000D02*
X198350000Y-93200000D01*
X200350000Y-93200000D02*
X200350000Y-92700000D01*
X200450000Y-92700000D02*
X200450000Y-93200000D01*
X200550000Y-92700000D02*
X200550000Y-93200000D01*
X200550000Y-93200000D02*
X200350000Y-93200000D01*
X200950000Y-96200000D02*
X202900000Y-96200000D01*
X200950000Y-96810000D02*
X200950000Y-96200000D01*
X201750000Y-96810000D02*
X201750000Y-97010000D01*
X201750000Y-96910000D02*
X202050000Y-96910000D01*
X201750000Y-97010000D02*
X202050000Y-97010000D01*
X202050000Y-97010000D02*
X202050000Y-96810000D01*
X202560000Y-97110000D02*
X203810000Y-97110000D01*
X202900000Y-92700000D02*
X190000000Y-92700000D01*
X202900000Y-96200000D02*
X202900000Y-92700000D01*
X203510000Y-92090000D02*
X189390000Y-92090000D01*
X203510000Y-94200000D02*
X202900000Y-94200000D01*
X203510000Y-95500000D02*
X202900000Y-95500000D01*
X203510000Y-96810000D02*
X203510000Y-92090000D01*
X203810000Y-97110000D02*
X203810000Y-95860000D01*
%TO.C,J2*%
X167670000Y-97730000D02*
X167670000Y-62110000D01*
X167670000Y-100330000D02*
X167670000Y-99000000D01*
X169000000Y-100330000D02*
X167670000Y-100330000D01*
X170330000Y-62110000D02*
X167670000Y-62110000D01*
X170330000Y-97730000D02*
X167670000Y-97730000D01*
X170330000Y-97730000D02*
X170330000Y-62110000D01*
%TO.C,J_Lift3*%
X189390000Y-82090000D02*
X189390000Y-86810000D01*
X189390000Y-84200000D02*
X190000000Y-84200000D01*
X189390000Y-85500000D02*
X190000000Y-85500000D01*
X189390000Y-86810000D02*
X203510000Y-86810000D01*
X190000000Y-82700000D02*
X190000000Y-86200000D01*
X190000000Y-86200000D02*
X191950000Y-86200000D01*
X191950000Y-86200000D02*
X191950000Y-86810000D01*
X192350000Y-83200000D02*
X192350000Y-82700000D01*
X192450000Y-82700000D02*
X192450000Y-83200000D01*
X192550000Y-82700000D02*
X192550000Y-83200000D01*
X192550000Y-83200000D02*
X192350000Y-83200000D01*
X194350000Y-83200000D02*
X194350000Y-82700000D01*
X194450000Y-82700000D02*
X194450000Y-83200000D01*
X194550000Y-82700000D02*
X194550000Y-83200000D01*
X194550000Y-83200000D02*
X194350000Y-83200000D01*
X196350000Y-83200000D02*
X196350000Y-82700000D01*
X196450000Y-82700000D02*
X196450000Y-83200000D01*
X196550000Y-82700000D02*
X196550000Y-83200000D01*
X196550000Y-83200000D02*
X196350000Y-83200000D01*
X198350000Y-83200000D02*
X198350000Y-82700000D01*
X198450000Y-82700000D02*
X198450000Y-83200000D01*
X198550000Y-82700000D02*
X198550000Y-83200000D01*
X198550000Y-83200000D02*
X198350000Y-83200000D01*
X200350000Y-83200000D02*
X200350000Y-82700000D01*
X200450000Y-82700000D02*
X200450000Y-83200000D01*
X200550000Y-82700000D02*
X200550000Y-83200000D01*
X200550000Y-83200000D02*
X200350000Y-83200000D01*
X200950000Y-86200000D02*
X202900000Y-86200000D01*
X200950000Y-86810000D02*
X200950000Y-86200000D01*
X201750000Y-86810000D02*
X201750000Y-87010000D01*
X201750000Y-86910000D02*
X202050000Y-86910000D01*
X201750000Y-87010000D02*
X202050000Y-87010000D01*
X202050000Y-87010000D02*
X202050000Y-86810000D01*
X202560000Y-87110000D02*
X203810000Y-87110000D01*
X202900000Y-82700000D02*
X190000000Y-82700000D01*
X202900000Y-86200000D02*
X202900000Y-82700000D01*
X203510000Y-82090000D02*
X189390000Y-82090000D01*
X203510000Y-84200000D02*
X202900000Y-84200000D01*
X203510000Y-85500000D02*
X202900000Y-85500000D01*
X203510000Y-86810000D02*
X203510000Y-82090000D01*
X203810000Y-87110000D02*
X203810000Y-85860000D01*
%TO.C,J3*%
X97480000Y-65740000D02*
X97480000Y-64360000D01*
X98860000Y-65740000D02*
X97480000Y-65740000D01*
X100130000Y-62980000D02*
X105320000Y-62980000D01*
X100130000Y-65740000D02*
X100130000Y-62980000D01*
X100130000Y-65740000D02*
X105320000Y-65740000D01*
X105320000Y-65740000D02*
X105320000Y-62980000D01*
%TO.C,J1*%
X142520000Y-64680000D02*
X142520000Y-100300000D01*
X142520000Y-64680000D02*
X145180000Y-64680000D01*
X142520000Y-100300000D02*
X145180000Y-100300000D01*
X143850000Y-62080000D02*
X145180000Y-62080000D01*
X145180000Y-62080000D02*
X145180000Y-63410000D01*
X145180000Y-64680000D02*
X145180000Y-100300000D01*
%TO.C,J6*%
X97480000Y-95740000D02*
X97480000Y-94360000D01*
X98860000Y-95740000D02*
X97480000Y-95740000D01*
X100130000Y-92980000D02*
X105320000Y-92980000D01*
X100130000Y-95740000D02*
X100130000Y-92980000D01*
X100130000Y-95740000D02*
X105320000Y-95740000D01*
X105320000Y-95740000D02*
X105320000Y-92980000D01*
%TO.C,J_Turn4*%
X109040000Y-101700000D02*
X109040000Y-102950000D01*
X109340000Y-102000000D02*
X109340000Y-106720000D01*
X109340000Y-103310000D02*
X109950000Y-103310000D01*
X109340000Y-104610000D02*
X109950000Y-104610000D01*
X109340000Y-106720000D02*
X123460000Y-106720000D01*
X109950000Y-102610000D02*
X109950000Y-106110000D01*
X109950000Y-106110000D02*
X122850000Y-106110000D01*
X110290000Y-101700000D02*
X109040000Y-101700000D01*
X110800000Y-101800000D02*
X110800000Y-102000000D01*
X111100000Y-101800000D02*
X110800000Y-101800000D01*
X111100000Y-101900000D02*
X110800000Y-101900000D01*
X111100000Y-102000000D02*
X111100000Y-101800000D01*
X111900000Y-102000000D02*
X111900000Y-102610000D01*
X111900000Y-102610000D02*
X109950000Y-102610000D01*
X112300000Y-105610000D02*
X112500000Y-105610000D01*
X112300000Y-106110000D02*
X112300000Y-105610000D01*
X112400000Y-106110000D02*
X112400000Y-105610000D01*
X112500000Y-105610000D02*
X112500000Y-106110000D01*
X114300000Y-105610000D02*
X114500000Y-105610000D01*
X114300000Y-106110000D02*
X114300000Y-105610000D01*
X114400000Y-106110000D02*
X114400000Y-105610000D01*
X114500000Y-105610000D02*
X114500000Y-106110000D01*
X116300000Y-105610000D02*
X116500000Y-105610000D01*
X116300000Y-106110000D02*
X116300000Y-105610000D01*
X116400000Y-106110000D02*
X116400000Y-105610000D01*
X116500000Y-105610000D02*
X116500000Y-106110000D01*
X118300000Y-105610000D02*
X118500000Y-105610000D01*
X118300000Y-106110000D02*
X118300000Y-105610000D01*
X118400000Y-106110000D02*
X118400000Y-105610000D01*
X118500000Y-105610000D02*
X118500000Y-106110000D01*
X120300000Y-105610000D02*
X120500000Y-105610000D01*
X120300000Y-106110000D02*
X120300000Y-105610000D01*
X120400000Y-106110000D02*
X120400000Y-105610000D01*
X120500000Y-105610000D02*
X120500000Y-106110000D01*
X120900000Y-102610000D02*
X120900000Y-102000000D01*
X122850000Y-102610000D02*
X120900000Y-102610000D01*
X122850000Y-106110000D02*
X122850000Y-102610000D01*
X123460000Y-102000000D02*
X109340000Y-102000000D01*
X123460000Y-103310000D02*
X122850000Y-103310000D01*
X123460000Y-104610000D02*
X122850000Y-104610000D01*
X123460000Y-106720000D02*
X123460000Y-102000000D01*
%TO.C,J_Turn3*%
X189390000Y-102090000D02*
X189390000Y-106810000D01*
X189390000Y-104200000D02*
X190000000Y-104200000D01*
X189390000Y-105500000D02*
X190000000Y-105500000D01*
X189390000Y-106810000D02*
X203510000Y-106810000D01*
X190000000Y-102700000D02*
X190000000Y-106200000D01*
X190000000Y-106200000D02*
X191950000Y-106200000D01*
X191950000Y-106200000D02*
X191950000Y-106810000D01*
X192350000Y-103200000D02*
X192350000Y-102700000D01*
X192450000Y-102700000D02*
X192450000Y-103200000D01*
X192550000Y-102700000D02*
X192550000Y-103200000D01*
X192550000Y-103200000D02*
X192350000Y-103200000D01*
X194350000Y-103200000D02*
X194350000Y-102700000D01*
X194450000Y-102700000D02*
X194450000Y-103200000D01*
X194550000Y-102700000D02*
X194550000Y-103200000D01*
X194550000Y-103200000D02*
X194350000Y-103200000D01*
X196350000Y-103200000D02*
X196350000Y-102700000D01*
X196450000Y-102700000D02*
X196450000Y-103200000D01*
X196550000Y-102700000D02*
X196550000Y-103200000D01*
X196550000Y-103200000D02*
X196350000Y-103200000D01*
X198350000Y-103200000D02*
X198350000Y-102700000D01*
X198450000Y-102700000D02*
X198450000Y-103200000D01*
X198550000Y-102700000D02*
X198550000Y-103200000D01*
X198550000Y-103200000D02*
X198350000Y-103200000D01*
X200350000Y-103200000D02*
X200350000Y-102700000D01*
X200450000Y-102700000D02*
X200450000Y-103200000D01*
X200550000Y-102700000D02*
X200550000Y-103200000D01*
X200550000Y-103200000D02*
X200350000Y-103200000D01*
X200950000Y-106200000D02*
X202900000Y-106200000D01*
X200950000Y-106810000D02*
X200950000Y-106200000D01*
X201750000Y-106810000D02*
X201750000Y-107010000D01*
X201750000Y-106910000D02*
X202050000Y-106910000D01*
X201750000Y-107010000D02*
X202050000Y-107010000D01*
X202050000Y-107010000D02*
X202050000Y-106810000D01*
X202560000Y-107110000D02*
X203810000Y-107110000D01*
X202900000Y-102700000D02*
X190000000Y-102700000D01*
X202900000Y-106200000D02*
X202900000Y-102700000D01*
X203510000Y-102090000D02*
X189390000Y-102090000D01*
X203510000Y-104200000D02*
X202900000Y-104200000D01*
X203510000Y-105500000D02*
X202900000Y-105500000D01*
X203510000Y-106810000D02*
X203510000Y-102090000D01*
X203810000Y-107110000D02*
X203810000Y-105860000D01*
%TO.C,J_Lift2*%
X189390000Y-52090000D02*
X189390000Y-56810000D01*
X189390000Y-54200000D02*
X190000000Y-54200000D01*
X189390000Y-55500000D02*
X190000000Y-55500000D01*
X189390000Y-56810000D02*
X203510000Y-56810000D01*
X190000000Y-52700000D02*
X190000000Y-56200000D01*
X190000000Y-56200000D02*
X191950000Y-56200000D01*
X191950000Y-56200000D02*
X191950000Y-56810000D01*
X192350000Y-53200000D02*
X192350000Y-52700000D01*
X192450000Y-52700000D02*
X192450000Y-53200000D01*
X192550000Y-52700000D02*
X192550000Y-53200000D01*
X192550000Y-53200000D02*
X192350000Y-53200000D01*
X194350000Y-53200000D02*
X194350000Y-52700000D01*
X194450000Y-52700000D02*
X194450000Y-53200000D01*
X194550000Y-52700000D02*
X194550000Y-53200000D01*
X194550000Y-53200000D02*
X194350000Y-53200000D01*
X196350000Y-53200000D02*
X196350000Y-52700000D01*
X196450000Y-52700000D02*
X196450000Y-53200000D01*
X196550000Y-52700000D02*
X196550000Y-53200000D01*
X196550000Y-53200000D02*
X196350000Y-53200000D01*
X198350000Y-53200000D02*
X198350000Y-52700000D01*
X198450000Y-52700000D02*
X198450000Y-53200000D01*
X198550000Y-52700000D02*
X198550000Y-53200000D01*
X198550000Y-53200000D02*
X198350000Y-53200000D01*
X200350000Y-53200000D02*
X200350000Y-52700000D01*
X200450000Y-52700000D02*
X200450000Y-53200000D01*
X200550000Y-52700000D02*
X200550000Y-53200000D01*
X200550000Y-53200000D02*
X200350000Y-53200000D01*
X200950000Y-56200000D02*
X202900000Y-56200000D01*
X200950000Y-56810000D02*
X200950000Y-56200000D01*
X201750000Y-56810000D02*
X201750000Y-57010000D01*
X201750000Y-56910000D02*
X202050000Y-56910000D01*
X201750000Y-57010000D02*
X202050000Y-57010000D01*
X202050000Y-57010000D02*
X202050000Y-56810000D01*
X202560000Y-57110000D02*
X203810000Y-57110000D01*
X202900000Y-52700000D02*
X190000000Y-52700000D01*
X202900000Y-56200000D02*
X202900000Y-52700000D01*
X203510000Y-52090000D02*
X189390000Y-52090000D01*
X203510000Y-54200000D02*
X202900000Y-54200000D01*
X203510000Y-55500000D02*
X202900000Y-55500000D01*
X203510000Y-56810000D02*
X203510000Y-52090000D01*
X203810000Y-57110000D02*
X203810000Y-55860000D01*
%TO.C,J_Lift1*%
X109040000Y-51700000D02*
X109040000Y-52950000D01*
X109340000Y-52000000D02*
X109340000Y-56720000D01*
X109340000Y-53310000D02*
X109950000Y-53310000D01*
X109340000Y-54610000D02*
X109950000Y-54610000D01*
X109340000Y-56720000D02*
X123460000Y-56720000D01*
X109950000Y-52610000D02*
X109950000Y-56110000D01*
X109950000Y-56110000D02*
X122850000Y-56110000D01*
X110290000Y-51700000D02*
X109040000Y-51700000D01*
X110800000Y-51800000D02*
X110800000Y-52000000D01*
X111100000Y-51800000D02*
X110800000Y-51800000D01*
X111100000Y-51900000D02*
X110800000Y-51900000D01*
X111100000Y-52000000D02*
X111100000Y-51800000D01*
X111900000Y-52000000D02*
X111900000Y-52610000D01*
X111900000Y-52610000D02*
X109950000Y-52610000D01*
X112300000Y-55610000D02*
X112500000Y-55610000D01*
X112300000Y-56110000D02*
X112300000Y-55610000D01*
X112400000Y-56110000D02*
X112400000Y-55610000D01*
X112500000Y-55610000D02*
X112500000Y-56110000D01*
X114300000Y-55610000D02*
X114500000Y-55610000D01*
X114300000Y-56110000D02*
X114300000Y-55610000D01*
X114400000Y-56110000D02*
X114400000Y-55610000D01*
X114500000Y-55610000D02*
X114500000Y-56110000D01*
X116300000Y-55610000D02*
X116500000Y-55610000D01*
X116300000Y-56110000D02*
X116300000Y-55610000D01*
X116400000Y-56110000D02*
X116400000Y-55610000D01*
X116500000Y-55610000D02*
X116500000Y-56110000D01*
X118300000Y-55610000D02*
X118500000Y-55610000D01*
X118300000Y-56110000D02*
X118300000Y-55610000D01*
X118400000Y-56110000D02*
X118400000Y-55610000D01*
X118500000Y-55610000D02*
X118500000Y-56110000D01*
X120300000Y-55610000D02*
X120500000Y-55610000D01*
X120300000Y-56110000D02*
X120300000Y-55610000D01*
X120400000Y-56110000D02*
X120400000Y-55610000D01*
X120500000Y-55610000D02*
X120500000Y-56110000D01*
X120900000Y-52610000D02*
X120900000Y-52000000D01*
X122850000Y-52610000D02*
X120900000Y-52610000D01*
X122850000Y-56110000D02*
X122850000Y-52610000D01*
X123460000Y-52000000D02*
X109340000Y-52000000D01*
X123460000Y-53310000D02*
X122850000Y-53310000D01*
X123460000Y-54610000D02*
X122850000Y-54610000D01*
X123460000Y-56720000D02*
X123460000Y-52000000D01*
%TO.C,J7*%
X177670000Y-97730000D02*
X177670000Y-62110000D01*
X177670000Y-100330000D02*
X177670000Y-99000000D01*
X179000000Y-100330000D02*
X177670000Y-100330000D01*
X180330000Y-62110000D02*
X177670000Y-62110000D01*
X180330000Y-97730000D02*
X177670000Y-97730000D01*
X180330000Y-97730000D02*
X180330000Y-62110000D01*
%TO.C,J4*%
X207530000Y-63070000D02*
X207530000Y-65830000D01*
X212720000Y-63070000D02*
X207530000Y-63070000D01*
X212720000Y-63070000D02*
X212720000Y-65830000D01*
X212720000Y-65830000D02*
X207530000Y-65830000D01*
X213990000Y-63070000D02*
X215370000Y-63070000D01*
X215370000Y-63070000D02*
X215370000Y-64450000D01*
%TO.C,J_Drive2*%
X189390000Y-62090000D02*
X189390000Y-66810000D01*
X189390000Y-64200000D02*
X190000000Y-64200000D01*
X189390000Y-65500000D02*
X190000000Y-65500000D01*
X189390000Y-66810000D02*
X203510000Y-66810000D01*
X190000000Y-62700000D02*
X190000000Y-66200000D01*
X190000000Y-66200000D02*
X191950000Y-66200000D01*
X191950000Y-66200000D02*
X191950000Y-66810000D01*
X192350000Y-63200000D02*
X192350000Y-62700000D01*
X192450000Y-62700000D02*
X192450000Y-63200000D01*
X192550000Y-62700000D02*
X192550000Y-63200000D01*
X192550000Y-63200000D02*
X192350000Y-63200000D01*
X194350000Y-63200000D02*
X194350000Y-62700000D01*
X194450000Y-62700000D02*
X194450000Y-63200000D01*
X194550000Y-62700000D02*
X194550000Y-63200000D01*
X194550000Y-63200000D02*
X194350000Y-63200000D01*
X196350000Y-63200000D02*
X196350000Y-62700000D01*
X196450000Y-62700000D02*
X196450000Y-63200000D01*
X196550000Y-62700000D02*
X196550000Y-63200000D01*
X196550000Y-63200000D02*
X196350000Y-63200000D01*
X198350000Y-63200000D02*
X198350000Y-62700000D01*
X198450000Y-62700000D02*
X198450000Y-63200000D01*
X198550000Y-62700000D02*
X198550000Y-63200000D01*
X198550000Y-63200000D02*
X198350000Y-63200000D01*
X200350000Y-63200000D02*
X200350000Y-62700000D01*
X200450000Y-62700000D02*
X200450000Y-63200000D01*
X200550000Y-62700000D02*
X200550000Y-63200000D01*
X200550000Y-63200000D02*
X200350000Y-63200000D01*
X200950000Y-66200000D02*
X202900000Y-66200000D01*
X200950000Y-66810000D02*
X200950000Y-66200000D01*
X201750000Y-66810000D02*
X201750000Y-67010000D01*
X201750000Y-66910000D02*
X202050000Y-66910000D01*
X201750000Y-67010000D02*
X202050000Y-67010000D01*
X202050000Y-67010000D02*
X202050000Y-66810000D01*
X202560000Y-67110000D02*
X203810000Y-67110000D01*
X202900000Y-62700000D02*
X190000000Y-62700000D01*
X202900000Y-66200000D02*
X202900000Y-62700000D01*
X203510000Y-62090000D02*
X189390000Y-62090000D01*
X203510000Y-64200000D02*
X202900000Y-64200000D01*
X203510000Y-65500000D02*
X202900000Y-65500000D01*
X203510000Y-66810000D02*
X203510000Y-62090000D01*
X203810000Y-67110000D02*
X203810000Y-65860000D01*
%TD*%
M02*
