%TF.GenerationSoftware,KiCad,Pcbnew,9.0.7*%
%TF.CreationDate,2026-02-06T13:42:45-05:00*%
%TF.ProjectId,ESP_Breakout,4553505f-4272-4656-916b-6f75742e6b69,rev?*%
%TF.SameCoordinates,Original*%
%TF.FileFunction,Soldermask,Top*%
%TF.FilePolarity,Negative*%
%FSLAX46Y46*%
G04 Gerber Fmt 4.6, Leading zero omitted, Abs format (unit mm)*
G04 Created by KiCad (PCBNEW 9.0.7) date 2026-02-06 13:42:45*
%MOMM*%
%LPD*%
G01*
G04 APERTURE LIST*
G04 Aperture macros list*
%AMRoundRect*
0 Rectangle with rounded corners*
0 $1 Rounding radius*
0 $2 $3 $4 $5 $6 $7 $8 $9 X,Y pos of 4 corners*
0 Add a 4 corners polygon primitive as box body*
4,1,4,$2,$3,$4,$5,$6,$7,$8,$9,$2,$3,0*
0 Add four circle primitives for the rounded corners*
1,1,$1+$1,$2,$3*
1,1,$1+$1,$4,$5*
1,1,$1+$1,$6,$7*
1,1,$1+$1,$8,$9*
0 Add four rect primitives between the rounded corners*
20,1,$1+$1,$2,$3,$4,$5,0*
20,1,$1+$1,$4,$5,$6,$7,0*
20,1,$1+$1,$6,$7,$8,$9,0*
20,1,$1+$1,$8,$9,$2,$3,0*%
G04 Aperture macros list end*
%ADD10R,1.700000X1.700000*%
%ADD11C,1.700000*%
%ADD12C,3.200000*%
%ADD13RoundRect,0.250000X-0.350000X-0.625000X0.350000X-0.625000X0.350000X0.625000X-0.350000X0.625000X0*%
%ADD14O,1.200000X1.750000*%
%ADD15RoundRect,0.250000X0.350000X0.625000X-0.350000X0.625000X-0.350000X-0.625000X0.350000X-0.625000X0*%
G04 APERTURE END LIST*
D10*
%TO.C,J5*%
X213990000Y-94450000D03*
D11*
X211450000Y-94450000D03*
X208910000Y-94450000D03*
%TD*%
D12*
%TO.C,H3*%
X216725000Y-49450000D03*
%TD*%
D13*
%TO.C,J_Drive4*%
X111400000Y-93810000D03*
D14*
X113400000Y-93810000D03*
X115400000Y-93810000D03*
X117400000Y-93810000D03*
X119400000Y-93810000D03*
X121400000Y-93810000D03*
%TD*%
D13*
%TO.C,J_Turn1*%
X111400000Y-73810000D03*
D14*
X113400000Y-73810000D03*
X115400000Y-73810000D03*
X117400000Y-73810000D03*
X119400000Y-73810000D03*
X121400000Y-73810000D03*
%TD*%
D10*
%TO.C,J8*%
X133850000Y-63410000D03*
D11*
X133850000Y-65950000D03*
X133850000Y-68490000D03*
X133850000Y-71030000D03*
X133850000Y-73570000D03*
X133850000Y-76110000D03*
X133850000Y-78650000D03*
X133850000Y-81190000D03*
X133850000Y-83730000D03*
X133850000Y-86270000D03*
X133850000Y-88810000D03*
X133850000Y-91350000D03*
X133850000Y-93890000D03*
X133850000Y-96430000D03*
X133850000Y-98970000D03*
%TD*%
D12*
%TO.C,H1*%
X96625000Y-49450000D03*
%TD*%
D13*
%TO.C,J_Lift4*%
X111400000Y-83810000D03*
D14*
X113400000Y-83810000D03*
X115400000Y-83810000D03*
X117400000Y-83810000D03*
X119400000Y-83810000D03*
X121400000Y-83810000D03*
%TD*%
D15*
%TO.C,J_Turn2*%
X201450000Y-75000000D03*
D14*
X199450000Y-75000000D03*
X197450000Y-75000000D03*
X195450000Y-75000000D03*
X193450000Y-75000000D03*
X191450000Y-75000000D03*
%TD*%
D13*
%TO.C,J_Drive1*%
X111400000Y-63810000D03*
D14*
X113400000Y-63810000D03*
X115400000Y-63810000D03*
X117400000Y-63810000D03*
X119400000Y-63810000D03*
X121400000Y-63810000D03*
%TD*%
D15*
%TO.C,J_Drive3*%
X201450000Y-95000000D03*
D14*
X199450000Y-95000000D03*
X197450000Y-95000000D03*
X195450000Y-95000000D03*
X193450000Y-95000000D03*
X191450000Y-95000000D03*
%TD*%
D10*
%TO.C,J2*%
X169000000Y-99000000D03*
D11*
X169000000Y-96460000D03*
X169000000Y-93920000D03*
X169000000Y-91380000D03*
X169000000Y-88840000D03*
X169000000Y-86300000D03*
X169000000Y-83760000D03*
X169000000Y-81220000D03*
X169000000Y-78680000D03*
X169000000Y-76140000D03*
X169000000Y-73600000D03*
X169000000Y-71060000D03*
X169000000Y-68520000D03*
X169000000Y-65980000D03*
X169000000Y-63440000D03*
%TD*%
D15*
%TO.C,J_Lift3*%
X201450000Y-85000000D03*
D14*
X199450000Y-85000000D03*
X197450000Y-85000000D03*
X195450000Y-85000000D03*
X193450000Y-85000000D03*
X191450000Y-85000000D03*
%TD*%
D10*
%TO.C,J3*%
X98860000Y-64360000D03*
D11*
X101400000Y-64360000D03*
X103940000Y-64360000D03*
%TD*%
D10*
%TO.C,J1*%
X143850000Y-63410000D03*
D11*
X143850000Y-65950000D03*
X143850000Y-68490000D03*
X143850000Y-71030000D03*
X143850000Y-73570000D03*
X143850000Y-76110000D03*
X143850000Y-78650000D03*
X143850000Y-81190000D03*
X143850000Y-83730000D03*
X143850000Y-86270000D03*
X143850000Y-88810000D03*
X143850000Y-91350000D03*
X143850000Y-93890000D03*
X143850000Y-96430000D03*
X143850000Y-98970000D03*
%TD*%
D12*
%TO.C,H2*%
X96625000Y-112750000D03*
%TD*%
%TO.C,H4*%
X216725000Y-112750000D03*
%TD*%
D10*
%TO.C,J6*%
X98860000Y-94360000D03*
D11*
X101400000Y-94360000D03*
X103940000Y-94360000D03*
%TD*%
D13*
%TO.C,J_Turn4*%
X111400000Y-103810000D03*
D14*
X113400000Y-103810000D03*
X115400000Y-103810000D03*
X117400000Y-103810000D03*
X119400000Y-103810000D03*
X121400000Y-103810000D03*
%TD*%
D15*
%TO.C,J_Turn3*%
X201450000Y-105000000D03*
D14*
X199450000Y-105000000D03*
X197450000Y-105000000D03*
X195450000Y-105000000D03*
X193450000Y-105000000D03*
X191450000Y-105000000D03*
%TD*%
D15*
%TO.C,J_Lift2*%
X201450000Y-55000000D03*
D14*
X199450000Y-55000000D03*
X197450000Y-55000000D03*
X195450000Y-55000000D03*
X193450000Y-55000000D03*
X191450000Y-55000000D03*
%TD*%
D13*
%TO.C,J_Lift1*%
X111400000Y-53810000D03*
D14*
X113400000Y-53810000D03*
X115400000Y-53810000D03*
X117400000Y-53810000D03*
X119400000Y-53810000D03*
X121400000Y-53810000D03*
%TD*%
D10*
%TO.C,J7*%
X179000000Y-99000000D03*
D11*
X179000000Y-96460000D03*
X179000000Y-93920000D03*
X179000000Y-91380000D03*
X179000000Y-88840000D03*
X179000000Y-86300000D03*
X179000000Y-83760000D03*
X179000000Y-81220000D03*
X179000000Y-78680000D03*
X179000000Y-76140000D03*
X179000000Y-73600000D03*
X179000000Y-71060000D03*
X179000000Y-68520000D03*
X179000000Y-65980000D03*
X179000000Y-63440000D03*
%TD*%
D10*
%TO.C,J4*%
X213990000Y-64450000D03*
D11*
X211450000Y-64450000D03*
X208910000Y-64450000D03*
%TD*%
D15*
%TO.C,J_Drive2*%
X201450000Y-65000000D03*
D14*
X199450000Y-65000000D03*
X197450000Y-65000000D03*
X195450000Y-65000000D03*
X193450000Y-65000000D03*
X191450000Y-65000000D03*
%TD*%
M02*
